<svg width="100" height="68" viewBox="0 0 100 68" fill="none" xmlns="http://www.w3.org/2000/svg">
<path id="Curved" d="M4.20471 60.9099C5.77294 56.0788 7.29702 51.4493 8.80251 46.8175C9.10686 45.8953 9.32061 45.2442 9.51107 44.0253C9.66205 43.1215 9.94077 41.1981 8.93456 41.2416C8.10729 41.3639 7.53564 41.5559 6.85023 43.1082C5.10069 47.1257 3.96466 51.3708 2.81468 55.5764C1.80177 59.2908 1.08624 62.1386 0.384694 65.4777C0.0571509 67.0372 0.758998 67.7653 2.2323 67.7616C3.55455 67.7578 4.91166 67.7772 6.20833 67.5254C10.8884 66.6429 15.5267 65.6423 20.1975 64.6834C20.7785 64.5679 21.2386 64.5125 21.9101 64.2765C22.7211 63.9827 23.3276 63.8139 23.2044 62.9888C23.0951 62.2031 21.975 62.1004 21.4011 62.1603C16.5931 62.556 6.68907 63.5372 6.14994 63.4696C8.0158 61.2367 9.69577 59.1311 11.4966 57.1159C24.1046 43.142 37.605 30.1837 54.0267 20.5852C67.0256 12.9871 80.7032 7.05563 95.2872 3.2337C96.147 3.00248 96.9975 2.69477 97.8108 2.3824C98.9192 1.97519 99.4234 1.56762 99.2514 0.981177C98.7796 -0.0759078 97.957 0.00933482 97.2947 0.0205158C95.9725 0.024339 94.634 0.308576 93.335 0.578929C75.9972 4.37599 60.2888 11.8983 45.5077 21.514C30.3362 31.382 18.0023 44.2228 6.72121 58.1559C6.15425 58.9134 4.57651 60.6552 4.20471 60.9099Z" fill="#1C1C1C"/>
</svg>
