<svg width="110" height="74" viewBox="0 0 110 74" fill="none" xmlns="http://www.w3.org/2000/svg">
<g id="Three">
<path d="M92.2333 39.7458C90.5608 40.0534 89.3327 40.2407 88.1806 40.4165C86.694 40.6433 85.3339 40.8508 83.3088 41.2724C82.1357 41.5161 80.9446 41.8679 79.8568 42.19C78.6178 42.5466 77.2961 43.4233 77.3775 44.9024C77.3918 46.1951 79.5722 46.7481 80.5685 46.6671C86.6519 46.1133 92.7228 45.3625 98.782 44.6131L98.7846 44.6127L98.8633 44.603C99.7258 44.4963 100.588 44.3897 101.45 44.2837C103.063 44.0923 104.681 43.7651 106.21 43.3117C109.013 42.4692 109.921 40.2627 108.082 38.0238C103.325 32.2157 98.3986 26.5503 93.437 20.9173C92.924 20.3316 91.6346 19.6116 90.7745 20.1811C90.0196 20.8366 90.5638 22.3077 91.0614 22.9336C92.8531 25.2902 94.7328 27.5726 96.6181 29.8615C97.3451 30.7442 98.0729 31.628 98.7969 32.5173C99.2696 33.0878 99.7347 33.6784 99.8123 33.7768C95.1099 31.9704 90.3788 30.1445 85.6252 28.3099C73.002 23.4382 60.2204 18.5054 47.3969 13.7143C38.1958 10.2713 28.8909 7.06317 19.5935 3.8576C17.1577 3.01778 14.7224 2.17813 12.2897 1.33448C8.81698 0.129342 6.85141 0.462577 6.47597 2.29672C5.91201 5.07414 7.99538 5.78895 9.83986 6.4218C10.0645 6.49886 10.2855 6.5747 10.4978 6.65292C19.7482 10.1348 29.012 13.5815 38.2758 17.0282C47.5395 20.4749 56.8033 23.9216 66.0536 27.4035C72.2178 29.7308 78.3422 32.1626 84.4666 34.5944C87.2498 35.6995 90.033 36.8046 92.82 37.9C93.282 38.0756 95.4435 38.9202 95.8978 39.1159C94.8308 39.262 93.5698 39.4952 92.2333 39.7458Z" fill="#1C1C1C"/>
<path d="M64.7615 60.4088L64.7606 60.4079C62.4443 58.2363 60.2666 56.1945 58.0165 54.2312C57.9069 54.1347 57.7953 54.0321 57.6818 53.9261C57.6085 53.8578 57.5345 53.7879 57.4596 53.7173C56.1926 52.5227 54.6955 51.1112 52.9833 52.7777C51.2077 54.5153 52.6904 56.0074 53.9186 57.2433C54.0829 57.4087 54.2427 57.5695 54.3895 57.7257C58.6994 62.3523 63.1229 66.8612 67.5665 71.3777C68.8458 72.6686 70.2396 73.6581 72.3559 72.8075C74.6032 71.9148 74.7319 70.1248 74.7631 68.2287C74.884 60.8959 73.7869 53.7437 71.1822 46.869C70.9188 46.1711 70.287 45.1724 69.306 45.2133C68.3969 45.4884 68.3233 46.7706 68.3802 47.5279C68.4751 49.166 68.7026 50.8061 68.968 52.72C69.0682 53.4424 69.1737 54.2037 69.2796 55.0186C61.0237 43.72 50.8827 35.5666 39.7681 28.5832C29.2304 21.957 18.2611 16.2242 6.07761 13.2019C5.17582 12.9741 4.2185 12.7711 3.32832 12.7545C3.27056 12.7539 3.21459 12.7533 3.16028 12.7526C1.98791 12.7384 1.60104 12.7337 0.952125 13.8051C0.578018 14.7893 1.69268 15.7877 2.40241 16.2184C3.89789 17.0946 5.51421 17.8029 7.12165 18.5073C7.55515 18.6973 7.98803 18.887 8.41769 19.0796C24.8545 26.454 40.5158 35.1428 54.2288 47.0217C59.2767 51.4001 64.1324 55.9814 67.4001 61.9588C67.5619 62.3191 67.7237 62.6795 68.1623 63.5818C66.9829 62.4915 65.8567 61.4356 64.7615 60.4088Z" fill="#1C1C1C"/>
</g>
</svg>
