<svg width="48" height="44" viewBox="0 0 48 44" fill="none" xmlns="http://www.w3.org/2000/svg">
<g id="Group">
<path id="Vector" d="M47.9998 21.9999C47.9998 12.4848 42.4625 4.26335 34.4346 0.381348V43.6184C42.4625 39.7365 47.9998 31.515 47.9998 21.9999Z" fill="#D80027"/>
<path id="Vector_2" d="M0 21.9999C0 31.515 5.53734 39.7365 13.5653 43.6185V0.381348C5.53734 4.26335 0 12.4848 0 21.9999Z" fill="#D80027"/>
<path id="Vector_3" d="M28.1741 25.1305L32.3479 23.0436L30.261 22.0001V19.9132L26.0871 22.0001L28.1741 17.8262H26.0871L24.0001 14.6958L21.9132 17.8262H19.8262L21.9132 22.0001L17.7392 19.9132V22.0001L15.6523 23.0436L19.8262 25.1305L18.7828 27.2175H22.9567V30.3479H25.0436V27.2175H29.2175L28.1741 25.1305Z" fill="#D80027"/>
</g>
</svg>
