<svg width="48" height="48" viewBox="0 0 48 48" fill="none" xmlns="http://www.w3.org/2000/svg">
<g id="lithuania" clip-path="url(#clip0_1_59342)">
<path id="Vector" d="M46.5072 32.3477C47.472 29.7478 48 26.9356 48 23.9999C48 21.0642 47.472 18.252 46.5072 15.6522L24 13.5652L1.49278 15.6522C0.528 18.252 0 21.0642 0 23.9999C0 26.9356 0.528 29.7478 1.49278 32.3477L24 34.4347L46.5072 32.3477Z" fill="#6DA544"/>
<path id="Vector_2" d="M46.5076 15.6522C43.1166 6.513 34.3195 0 24.0004 0C13.6812 0 4.8842 6.513 1.49316 15.6522H46.5076Z" fill="#FFDA44"/>
<path id="Vector_3" d="M24.0004 48.0001C34.3195 48.0001 43.1166 41.4871 46.5076 32.3479H1.49316C4.8842 41.4871 13.6812 48.0001 24.0004 48.0001Z" fill="#D80027"/>
</g>
<defs>
<clipPath id="clip0_1_59342">
<rect width="48" height="48" fill="white"/>
</clipPath>
</defs>
</svg>
