<svg width="673" height="135" viewBox="0 0 673 135" fill="none" xmlns="http://www.w3.org/2000/svg">
<g clip-path="url(#clip0_9917_3889)">
<path d="M498.5 2.59998H462.3V132.4H498.5V2.59998Z" fill="white"/>
<path d="M201.7 0C162.5 0 130.8 30.1 130.8 67.3C130.8 104.5 162.6 134.6 201.7 134.6C240.8 134.6 272.6 104.5 272.6 67.3C272.6 30.1 240.9 0 201.7 0ZM201.7 106C181.4 106 165 88.7 165 67.3C165 45.9 181.4 28.6 201.7 28.6C222 28.6 238.4 45.9 238.4 67.3C238.4 88.7 222 106 201.7 106Z" fill="white"/>
<path d="M601.3 0C562.1 0 530.4 30.1 530.4 67.3C530.4 104.5 562.2 134.6 601.3 134.6C640.4 134.6 672.2 104.5 672.2 67.3C672.2 30.1 640.4 0 601.3 0ZM601.3 106C581 106 564.6 88.7 564.6 67.3C564.6 45.9 581 28.6 601.3 28.6C621.6 28.6 638 45.9 638 67.3C638 88.7 621.5 106 601.3 106Z" fill="white"/>
<path d="M387.9 71.99L327.8 2.59998H305.5V12.42V21.9V132.4H341.7V63.7L401.9 133.2H424.2V122.45V113.9V2.59998H387.9V71.99Z" fill="white"/>
<path d="M0 2.59998V32.1H39.5L13.95 2.59998H0Z" fill="white"/>
<path d="M39.5 132.4H75.7V73.9L39.5 32.1V132.4Z" fill="white"/>
<path d="M115.2 2.59998H39.4399V32.03H115.2V2.59998Z" fill="white"/>
</g>
<defs>
<clipPath id="clip0_9917_3889">
<rect width="672.2" height="134.6" fill="white"/>
</clipPath>
</defs>
</svg>
