<svg width="48" height="48" viewBox="0 0 48 48" fill="none" xmlns="http://www.w3.org/2000/svg">
<g clip-path="url(#clip0_1_59341)">
<path d="M24 48C37.2548 48 48 37.2548 48 24C48 10.7452 37.2548 0 24 0C10.7452 0 0 10.7452 0 24C0 37.2548 10.7452 48 24 48Z" fill="#D80027"/>
<path d="M32.2769 18.4004L34.9631 22.1019L39.3133 20.6914L36.6229 24.3897L39.3087 28.0912L34.96 26.6753L32.2698 30.3736L32.2726 25.8004L27.9238 24.3845L32.2741 22.974L32.2769 18.4004Z" fill="#F0F0F0"/>
<path d="M24.9455 33.6391C19.8358 33.6391 15.6934 29.4968 15.6934 24.3871C15.6934 19.2775 19.8358 15.1351 24.9455 15.1351C26.5386 15.1351 28.0376 15.5381 29.3464 16.2472C27.2932 14.2392 24.4853 13 21.387 13C15.098 13 10 18.0981 10 24.387C10 30.6759 15.0981 35.774 21.387 35.774C24.4856 35.774 27.2934 34.5347 29.3464 32.5268C28.0376 33.2362 26.5386 33.6391 24.9455 33.6391Z" fill="#F0F0F0"/>
</g>
<defs>
<clipPath id="clip0_1_59341">
<rect width="48" height="48" fill="white"/>
</clipPath>
</defs>
</svg>
