<svg width="48" height="48" viewBox="0 0 48 48" fill="none" xmlns="http://www.w3.org/2000/svg">
<g clip-path="url(#clip0_1_59343)">
<path d="M24 48C37.2548 48 48 37.2548 48 24C48 10.7452 37.2548 0 24 0C10.7452 0 0 10.7452 0 24C0 37.2548 10.7452 48 24 48Z" fill="#F0F0F0"/>
<path d="M22.958 24.0004H48.0014C48.0014 21.8342 47.7127 19.7357 47.1747 17.7395H22.958V24.0004Z" fill="#D80027"/>
<path d="M22.958 11.4784H44.4789C43.0097 9.08106 41.1313 6.96203 38.9411 5.21753H22.958V11.4784Z" fill="#D80027"/>
<path d="M24.0002 48.0011C29.6485 48.0011 34.8401 46.0488 38.9398 42.7837H9.06055C13.1602 46.0488 18.3518 48.0011 24.0002 48.0011Z" fill="#D80027"/>
<path d="M3.52293 36.5224H44.4778C45.6573 34.5978 46.572 32.494 47.1736 30.2615H0.827148C1.42874 32.494 2.34346 34.5978 3.52293 36.5224Z" fill="#D80027"/>
<path d="M11.1173 3.74794H13.3043L11.27 5.22591L12.0471 7.61737L10.0128 6.13941L7.9785 7.61737L8.64975 5.55141C6.85856 7.04344 5.28862 8.7915 3.99487 10.7393H4.69566L3.40069 11.68C3.19894 12.0166 3.00544 12.3585 2.82 12.7055L3.43837 14.6087L2.28469 13.7705C1.99791 14.3781 1.73559 14.9993 1.49981 15.6336L2.18109 17.7306H4.69566L2.66128 19.2085L3.43837 21.6L1.40409 20.122L0.185531 21.0074C0.0635625 21.9878 0 22.9865 0 24H24C24 10.7452 24 9.18262 24 0C19.2589 0 14.8392 1.37531 11.1173 3.74794ZM12.0471 21.6L10.0128 20.122L7.9785 21.6L8.75559 19.2085L6.72122 17.7306H9.23578L10.0128 15.3391L10.7898 17.7306H13.3043L11.27 19.2085L12.0471 21.6ZM11.27 12.2172L12.0471 14.6087L10.0128 13.1307L7.9785 14.6087L8.75559 12.2172L6.72122 10.7393H9.23578L10.0128 8.34778L10.7898 10.7393H13.3043L11.27 12.2172ZM20.6558 21.6L18.6215 20.122L16.5872 21.6L17.3643 19.2085L15.3299 17.7306H17.8445L18.6215 15.3391L19.3985 17.7306H21.913L19.8787 19.2085L20.6558 21.6ZM19.8787 12.2172L20.6558 14.6087L18.6215 13.1307L16.5872 14.6087L17.3643 12.2172L15.3299 10.7393H17.8445L18.6215 8.34778L19.3985 10.7393H21.913L19.8787 12.2172ZM19.8787 5.22591L20.6558 7.61737L18.6215 6.13941L16.5872 7.61737L17.3643 5.22591L15.3299 3.74794H17.8445L18.6215 1.35647L19.3985 3.74794H21.913L19.8787 5.22591Z" fill="#0052B4"/>
</g>
<defs>
<clipPath id="clip0_1_59343">
<rect width="48" height="48" fill="white"/>
</clipPath>
</defs>
</svg>
