<svg width="64" height="64" viewBox="0 0 64 64" fill="none" xmlns="http://www.w3.org/2000/svg">
<g id="phone">
<path id="Vector" d="M58.6717 45.1199V53.1199C58.6747 53.8626 58.5226 54.5977 58.2251 55.2782C57.9275 55.9587 57.4912 56.5695 56.9439 57.0716C56.3966 57.5736 55.7506 57.9559 55.047 58.1938C54.3435 58.4317 53.598 58.5201 52.8584 58.4533C44.6526 57.5616 36.7704 54.7577 29.845 50.2666C23.4019 46.1724 17.9393 40.7097 13.845 34.2666C9.33831 27.3098 6.53368 19.3893 5.65836 11.1466C5.59172 10.4092 5.67936 9.66596 5.9157 8.96426C6.15203 8.26257 6.53189 7.61777 7.03107 7.07092C7.53026 6.52407 8.13784 6.08716 8.81514 5.78799C9.49244 5.48883 10.2246 5.33396 10.965 5.33327H18.965C20.2592 5.32053 21.5138 5.77881 22.4951 6.62269C23.4763 7.46656 24.1172 8.63846 24.2984 9.91993C24.636 12.4801 25.2622 14.9939 26.165 17.4133C26.5238 18.3677 26.6015 19.405 26.3888 20.4023C26.1761 21.3995 25.682 22.3149 24.965 23.0399L21.5784 26.4266C25.3745 33.1027 30.9022 38.6305 37.5784 42.4266L40.965 39.0399C41.6901 38.323 42.6054 37.8289 43.6027 37.6162C44.5999 37.4035 45.6372 37.4812 46.5917 37.8399C49.0111 38.7427 51.5249 39.3689 54.085 39.7066C55.3804 39.8893 56.5634 40.5418 57.4091 41.5399C58.2548 42.538 58.7041 43.8121 58.6717 45.1199Z" stroke="url(#paint0_linear_1_60506)" stroke-width="5.33333" stroke-linecap="round" stroke-linejoin="round"/>
</g>
<defs>
<linearGradient id="paint0_linear_1_60506" x1="58.3419" y1="5.33301" x2="-0.930922" y2="58.026" gradientUnits="userSpaceOnUse">
<stop stop-color="#1C1C1C"/>
<stop offset="1" stop-color="#FDCC06"/>
</linearGradient>
</defs>
</svg>
