<svg width="28" height="28" viewBox="0 0 28 28" fill="none" xmlns="http://www.w3.org/2000/svg">
<g id="Icon / Facebook">
<path id="Vector" d="M19.2503 7H15.7503C15.106 7 14.5837 7.52234 14.5837 8.16667V11.6667H19.2503C19.383 11.6637 19.5089 11.7255 19.5877 11.8322C19.6666 11.939 19.6888 12.0773 19.647 12.2033L18.7837 14.77C18.7041 15.0055 18.4839 15.1648 18.2353 15.1667H14.5837V23.9167C14.5837 24.2388 14.3224 24.5 14.0003 24.5H11.0837C10.7615 24.5 10.5003 24.2388 10.5003 23.9167V15.1667H8.75033C8.42816 15.1667 8.16699 14.9054 8.16699 14.5833V12.25C8.16699 11.9279 8.42816 11.6667 8.75033 11.6667H10.5003V8.16667C10.5003 5.58934 12.5897 3.5 15.167 3.5H19.2503C19.5724 3.5 19.8337 3.76117 19.8337 4.08333V6.41667C19.8337 6.73883 19.5724 7 19.2503 7Z" fill="white"/>
</g>
</svg>
