<svg width="24" height="24" viewBox="0 0 24 24" fill="none" xmlns="http://www.w3.org/2000/svg">
<path d="M16.1243 5.83702H13.2096C12.673 5.83702 12.2381 6.27201 12.2381 6.80858V9.72324H16.1243C16.2348 9.72079 16.3396 9.7722 16.4053 9.8611C16.4709 9.95 16.4894 10.0652 16.4546 10.1702L15.7357 12.3076C15.6694 12.5037 15.4861 12.6363 15.279 12.6379H12.2381V19.9246C12.2381 20.1928 12.0205 20.4103 11.7523 20.4103H9.32342C9.05513 20.4103 8.83764 20.1928 8.83764 19.9246V12.6379H7.38031C7.11202 12.6379 6.89453 12.4204 6.89453 12.1521V10.209C6.89453 9.94077 7.11202 9.72324 7.38031 9.72324H8.83764V6.80858C8.83764 4.66228 10.5776 2.92236 12.7239 2.92236H16.1243C16.3925 2.92236 16.6101 3.13986 16.6101 3.40814V5.35125C16.6101 5.61953 16.3925 5.83702 16.1243 5.83702Z" fill="white"/>
</svg>
