<svg width="24" height="24" viewBox="0 0 24 24" fill="none" xmlns="http://www.w3.org/2000/svg">
<g id="Icon / Instagram">
<path id="Vector" fill-rule="evenodd" clip-rule="evenodd" d="M15.6155 2.92236H7.84312C5.16025 2.92236 2.98535 5.09726 2.98535 7.78013V15.5526C2.98535 18.2354 5.16025 20.4103 7.84312 20.4103H15.6155C18.2984 20.4103 20.4733 18.2354 20.4733 15.5526V7.78013C20.4733 5.09726 18.2984 2.92236 15.6155 2.92236ZM18.7731 15.5526C18.7678 17.2942 17.3572 18.7048 15.6155 18.7101H7.84312C6.10146 18.7048 4.6909 17.2942 4.68557 15.5526V7.78013C4.6909 6.03848 6.10146 4.62792 7.84312 4.62258H15.6155C17.3572 4.62792 18.7678 6.03848 18.7731 7.78013V15.5526ZM16.3442 8.02302C16.8808 8.02302 17.3158 7.58804 17.3158 7.05147C17.3158 6.5149 16.8808 6.07991 16.3442 6.07991C15.8076 6.07991 15.3727 6.5149 15.3727 7.05147C15.3727 7.58804 15.8076 8.02302 16.3442 8.02302ZM11.7293 7.29435C9.31475 7.29435 7.35734 9.25176 7.35734 11.6663C7.35734 14.0809 9.31475 16.0383 11.7293 16.0383C14.1439 16.0383 16.1013 14.0809 16.1013 11.6663C16.1039 10.506 15.6441 9.39249 14.8236 8.57202C14.0032 7.75156 12.8897 7.29177 11.7293 7.29435ZM9.05756 11.6663C9.05756 13.1419 10.2537 14.3381 11.7293 14.3381C13.2049 14.3381 14.4011 13.1419 14.4011 11.6663C14.4011 10.1907 13.2049 8.99457 11.7293 8.99457C10.2537 8.99457 9.05756 10.1907 9.05756 11.6663Z" fill="white"/>
</g>
</svg>
