<svg width="28" height="28" viewBox="0 0 28 28" fill="none" xmlns="http://www.w3.org/2000/svg">
<g id="Icon / Instagram">
<path id="Vector" fill-rule="evenodd" clip-rule="evenodd" d="M18.6657 3.5H9.33236C6.1107 3.5 3.49902 6.11168 3.49902 9.33333V18.6667C3.49902 21.8883 6.1107 24.5 9.33236 24.5H18.6657C21.8873 24.5 24.499 21.8883 24.499 18.6667V9.33333C24.499 6.11168 21.8873 3.5 18.6657 3.5ZM22.4574 18.6667C22.4509 20.758 20.7571 22.4519 18.6657 22.4583H9.33236C7.24093 22.4519 5.54709 20.758 5.54069 18.6667V9.33333C5.54709 7.24191 7.24093 5.54807 9.33236 5.54167H18.6657C20.7571 5.54807 22.4509 7.24191 22.4574 9.33333V18.6667ZM19.5407 9.625C20.185 9.625 20.7074 9.10266 20.7074 8.45833C20.7074 7.81401 20.185 7.29167 19.5407 7.29167C18.8963 7.29167 18.374 7.81401 18.374 8.45833C18.374 9.10266 18.8963 9.625 19.5407 9.625ZM13.999 8.75C11.0995 8.75 8.74902 11.1005 8.74902 14C8.74902 16.8995 11.0995 19.25 13.999 19.25C16.8985 19.25 19.249 16.8995 19.249 14C19.2522 12.6066 18.7 11.2695 17.7147 10.2843C16.7295 9.29902 15.3924 8.7469 13.999 8.75ZM10.7907 14C10.7907 15.7719 12.2271 17.2083 13.999 17.2083C15.771 17.2083 17.2074 15.7719 17.2074 14C17.2074 12.2281 15.771 10.7917 13.999 10.7917C12.2271 10.7917 10.7907 12.2281 10.7907 14Z" fill="white"/>
</g>
</svg>
