<svg width="28" height="28" viewBox="0 0 28 28" fill="none" xmlns="http://www.w3.org/2000/svg">
<g id="Icon / LinkedIn">
<path id="Vector" fill-rule="evenodd" clip-rule="evenodd" d="M5.83236 3.5H22.1657C23.4544 3.5 24.499 4.54467 24.499 5.83333V22.1667C24.499 23.4554 23.4544 24.5 22.1657 24.5H5.83236C4.54369 24.5 3.49902 23.4554 3.49902 22.1667V5.83333C3.49902 4.54467 4.54369 3.5 5.83236 3.5ZM9.33236 21C9.65452 21 9.91569 20.7388 9.91569 20.4167V12.25C9.91569 11.9279 9.65452 11.6667 9.33236 11.6667H7.58236C7.26019 11.6667 6.99902 11.9279 6.99902 12.25V20.4167C6.99902 20.7388 7.26019 21 7.58236 21H9.33236ZM8.45736 10.5C7.49085 10.5 6.70736 9.7165 6.70736 8.75C6.70736 7.7835 7.49085 7 8.45736 7C9.42386 7 10.2074 7.7835 10.2074 8.75C10.2074 9.7165 9.42386 10.5 8.45736 10.5ZM20.4157 21C20.7378 21 20.999 20.7388 20.999 20.4167V15.05C21.0369 13.1959 19.6662 11.6136 17.8257 11.3867C16.5389 11.2691 15.292 11.8701 14.5824 12.95V12.25C14.5824 11.9279 14.3211 11.6667 13.999 11.6667H12.249C11.9269 11.6667 11.6657 11.9279 11.6657 12.25V20.4167C11.6657 20.7388 11.9269 21 12.249 21H13.999C14.3211 21 14.5824 20.7388 14.5824 20.4167V16.0417C14.5824 15.0752 15.3659 14.2917 16.3324 14.2917C17.2988 14.2917 18.0824 15.0752 18.0824 16.0417V20.4167C18.0824 20.7388 18.3436 21 18.6657 21H20.4157Z" fill="white"/>
</g>
</svg>
