<svg width="24" height="24" viewBox="0 0 24 24" fill="none" xmlns="http://www.w3.org/2000/svg">
<g id="Icon / LinkedIn">
<path id="Vector" fill-rule="evenodd" clip-rule="evenodd" d="M4.88158 2.92236H18.4833C19.5565 2.92236 20.4264 3.79232 20.4264 4.86547V18.4672C20.4264 19.5404 19.5565 20.4103 18.4833 20.4103H4.88158C3.80843 20.4103 2.93848 19.5404 2.93848 18.4672V4.86547C2.93848 3.79232 3.80843 2.92236 4.88158 2.92236ZM7.79624 17.4957C8.06453 17.4957 8.28202 17.2781 8.28202 17.0099V10.209C8.28202 9.94077 8.06453 9.72324 7.79624 9.72324H6.33891C6.07063 9.72324 5.85314 9.94077 5.85314 10.209V17.0099C5.85314 17.2781 6.07063 17.4957 6.33891 17.4957H7.79624ZM7.06758 8.75168C6.26272 8.75168 5.61025 8.09922 5.61025 7.29435C5.61025 6.48949 6.26272 5.83702 7.06758 5.83702C7.87244 5.83702 8.52491 6.48949 8.52491 7.29435C8.52491 8.09922 7.87244 8.75168 7.06758 8.75168ZM17.026 17.4957C17.2942 17.4957 17.5118 17.2781 17.5118 17.0099V12.5407C17.5434 10.9967 16.4019 9.67905 14.8692 9.49007C13.7975 9.39218 12.7592 9.89268 12.1682 10.7919V10.209C12.1682 9.94077 11.9507 9.72324 11.6825 9.72324H10.2251C9.95688 9.72324 9.73935 9.94077 9.73935 10.209V17.0099C9.73935 17.2781 9.95688 17.4957 10.2251 17.4957H11.6825C11.9507 17.4957 12.1682 17.2781 12.1682 17.0099V13.3666C12.1682 12.5617 12.8207 11.9092 13.6256 11.9092C14.4304 11.9092 15.0829 12.5617 15.0829 13.3666V17.0099C15.0829 17.2781 15.3004 17.4957 15.5687 17.4957H17.026Z" fill="white"/>
</g>
</svg>
