<svg width="135" height="27" viewBox="0 0 135 27" fill="none" xmlns="http://www.w3.org/2000/svg">
<g id="logo-black 1" clip-path="url(#clip0_493_8109)">
<g id="Clip path group">
<mask id="mask0_493_8109" style="mask-type:luminance" maskUnits="userSpaceOnUse" x="0" y="0" width="135" height="27">
<g id="clip0_9938_1787">
<path id="Vector" d="M134.44 0H0V26.92H134.44V0Z" fill="white"/>
</g>
</mask>
<g mask="url(#mask0_493_8109)">
<g id="Group">
<path id="Vector_2" d="M99.7 0.52002H92.46V26.48H99.7V0.52002Z" fill="#1C1C1C"/>
<path id="Vector_3" d="M40.3399 0C32.4999 0 26.1599 6.02 26.1599 13.46C26.1599 20.9 32.5199 26.92 40.3399 26.92C48.1599 26.92 54.5199 20.9 54.5199 13.46C54.5199 6.02 48.1799 0 40.3399 0ZM40.3399 21.2C36.2799 21.2 32.9999 17.74 32.9999 13.46C32.9999 9.18 36.2799 5.72 40.3399 5.72C44.3999 5.72 47.6799 9.18 47.6799 13.46C47.6799 17.74 44.3999 21.2 40.3399 21.2Z" fill="#1C1C1C"/>
<path id="Vector_4" d="M120.26 0C112.42 0 106.08 6.02 106.08 13.46C106.08 20.9 112.44 26.92 120.26 26.92C128.08 26.92 134.44 20.9 134.44 13.46C134.44 6.02 128.08 0 120.26 0ZM120.26 21.2C116.2 21.2 112.92 17.74 112.92 13.46C112.92 9.18 116.2 5.72 120.26 5.72C124.32 5.72 127.6 9.18 127.6 13.46C127.6 17.74 124.3 21.2 120.26 21.2Z" fill="#1C1C1C"/>
<path id="Vector_5" d="M77.5801 14.398L65.5601 0.52002H61.1001V2.48402V4.38002V26.48H68.3401V12.74L80.3801 26.64H84.8401V24.49V22.78V0.52002H77.5801V14.398Z" fill="#1C1C1C"/>
<path id="Vector_6" d="M0 0.52002V6.42002H7.9L2.79 0.52002H0Z" fill="#1C1C1C"/>
<path id="Vector_7" d="M7.8999 26.4799H15.1399V14.7799L7.8999 6.41992V26.4799Z" fill="#1C1C1C"/>
<path id="Vector_8" d="M23.04 0.52002H7.88794V6.40602H23.04V0.52002Z" fill="#1C1C1C"/>
</g>
</g>
</g>
</g>
<defs>
<clipPath id="clip0_493_8109">
<rect width="134.6" height="27" fill="white"/>
</clipPath>
</defs>
</svg>
