<svg width="42" height="32" viewBox="0 0 42 32" fill="none" xmlns="http://www.w3.org/2000/svg">
<g id="Group">
<path id="Vector" d="M8.26029 31.8874V29.7664C8.26029 28.9533 7.76537 28.423 6.91694 28.423C6.49273 28.423 6.03317 28.5644 5.715 29.024C5.46755 28.6351 5.11404 28.423 4.58377 28.423C4.23026 28.423 3.87675 28.5291 3.59394 28.9179V28.4937H2.85156V31.8874H3.59394V30.0138C3.59394 29.4129 3.9121 29.1301 4.40701 29.1301C4.90193 29.1301 5.14939 29.4482 5.14939 30.0138V31.8874H5.89176V30.0138C5.89176 29.4129 6.24527 29.1301 6.70484 29.1301C7.19975 29.1301 7.44721 29.4482 7.44721 30.0138V31.8874H8.26029ZM19.2545 28.4937H18.0526V27.4686H17.3102V28.4937H16.6385V29.1654H17.3102V30.7209C17.3102 31.4986 17.6283 31.9581 18.4768 31.9581C18.7949 31.9581 19.1484 31.8521 19.3959 31.7107L19.1838 31.0744C18.9717 31.2158 18.7242 31.2511 18.5475 31.2511C18.194 31.2511 18.0526 31.039 18.0526 30.6855V29.1654H19.2545V28.4937ZM25.547 28.423C25.1228 28.423 24.84 28.6351 24.6632 28.9179V28.4937H23.9208V31.8874H24.6632V29.9785C24.6632 29.4129 24.9107 29.0947 25.3702 29.0947C25.5116 29.0947 25.6884 29.1301 25.8298 29.1654L26.0419 28.4584C25.9005 28.423 25.6884 28.423 25.547 28.423ZM16.0375 28.7765C15.684 28.5291 15.1891 28.423 14.6588 28.423C13.8104 28.423 13.2448 28.8472 13.2448 29.5189C13.2448 30.0845 13.669 30.4027 14.4114 30.5087L14.7649 30.5441C15.1538 30.6148 15.3659 30.7209 15.3659 30.8976C15.3659 31.1451 15.0831 31.3218 14.5881 31.3218C14.0932 31.3218 13.7044 31.1451 13.4569 30.9683L13.1034 31.5339C13.4923 31.8167 14.0225 31.9581 14.5528 31.9581C15.5426 31.9581 16.1082 31.4986 16.1082 30.8623C16.1082 30.2613 15.6487 29.9431 14.9417 29.8371L14.5881 29.8017C14.27 29.7664 14.0225 29.6957 14.0225 29.4836C14.0225 29.2361 14.27 29.0947 14.6588 29.0947C15.0831 29.0947 15.5073 29.2715 15.7194 29.3775L16.0375 28.7765ZM35.7635 28.423C35.3393 28.423 35.0565 28.6351 34.8797 28.9179V28.4937H34.1373V31.8874H34.8797V29.9785C34.8797 29.4129 35.1272 29.0947 35.5867 29.0947C35.7281 29.0947 35.9049 29.1301 36.0463 29.1654L36.2584 28.4584C36.117 28.423 35.9049 28.423 35.7635 28.423ZM26.2894 30.1906C26.2894 31.2158 26.9964 31.9581 28.0923 31.9581C28.5872 31.9581 28.9407 31.8521 29.2942 31.5693L28.9407 30.9683C28.6579 31.1804 28.3751 31.2865 28.0569 31.2865C27.456 31.2865 27.0317 30.8623 27.0317 30.1906C27.0317 29.5543 27.456 29.1301 28.0569 29.0947C28.3751 29.0947 28.6579 29.2008 28.9407 29.4129L29.2942 28.8119C28.9407 28.5291 28.5872 28.423 28.0923 28.423C26.9964 28.423 26.2894 29.1654 26.2894 30.1906ZM33.1475 30.1906V28.4937H32.4051V28.9179C32.1577 28.5998 31.8041 28.423 31.3446 28.423C30.3901 28.423 29.6477 29.1654 29.6477 30.1906C29.6477 31.2158 30.3901 31.9581 31.3446 31.9581C31.8395 31.9581 32.193 31.7814 32.4051 31.4632V31.8874H33.1475V30.1906ZM30.4255 30.1906C30.4255 29.5896 30.8143 29.0947 31.4506 29.0947C32.0516 29.0947 32.4758 29.5543 32.4758 30.1906C32.4758 30.7916 32.0516 31.2865 31.4506 31.2865C30.8143 31.2511 30.4255 30.7916 30.4255 30.1906ZM21.5523 28.423C20.5625 28.423 19.8555 29.1301 19.8555 30.1906C19.8555 31.2511 20.5625 31.9581 21.5877 31.9581C22.0826 31.9581 22.5775 31.8167 22.9664 31.4986L22.6129 30.9683C22.33 31.1804 21.9765 31.3218 21.623 31.3218C21.1635 31.3218 20.7039 31.1097 20.5978 30.5087H23.1078V30.2259C23.1431 29.1301 22.5068 28.423 21.5523 28.423ZM21.5523 29.0594C22.0119 29.0594 22.33 29.3422 22.4007 29.8724H20.6332C20.7039 29.4129 21.022 29.0594 21.5523 29.0594ZM39.9703 30.1906V27.1504H39.2279V28.9179C38.9804 28.5998 38.6269 28.423 38.1674 28.423C37.2129 28.423 36.4705 29.1654 36.4705 30.1906C36.4705 31.2158 37.2129 31.9581 38.1674 31.9581C38.6623 31.9581 39.0158 31.7814 39.2279 31.4632V31.8874H39.9703V30.1906ZM37.2482 30.1906C37.2482 29.5896 37.6371 29.0947 38.2734 29.0947C38.8744 29.0947 39.2986 29.5543 39.2986 30.1906C39.2986 30.7916 38.8744 31.2865 38.2734 31.2865C37.6371 31.2511 37.2482 30.7916 37.2482 30.1906ZM12.4317 30.1906V28.4937H11.6893V28.9179C11.4419 28.5998 11.0884 28.423 10.6288 28.423C9.67433 28.423 8.93196 29.1654 8.93196 30.1906C8.93196 31.2158 9.67433 31.9581 10.6288 31.9581C11.1237 31.9581 11.4772 31.7814 11.6893 31.4632V31.8874H12.4317V30.1906ZM9.67433 30.1906C9.67433 29.5896 10.0632 29.0947 10.6995 29.0947C11.3005 29.0947 11.7247 29.5543 11.7247 30.1906C11.7247 30.7916 11.3005 31.2865 10.6995 31.2865C10.0632 31.2511 9.67433 30.7916 9.67433 30.1906Z" fill="white"/>
<path id="Vector_2" d="M26.9247 2.72266H15.7891V22.7314H26.9247V2.72266Z" fill="#FF5F00"/>
<path id="Vector_3" d="M16.4969 12.7264C16.4969 8.66103 18.4058 5.05521 21.34 2.72204C19.1836 1.02518 16.4615 0 13.492 0C6.45716 0 0.765625 5.69153 0.765625 12.7264C0.765625 19.7613 6.45716 25.4528 13.492 25.4528C16.4615 25.4528 19.1836 24.4276 21.34 22.7308C18.4058 20.433 16.4969 16.7918 16.4969 12.7264Z" fill="#EB001B"/>
<path id="Vector_4" d="M41.9494 12.7264C41.9494 19.7613 36.2578 25.4528 29.223 25.4528C26.2535 25.4528 23.5314 24.4276 21.375 22.7308C24.3445 20.3976 26.2181 16.7918 26.2181 12.7264C26.2181 8.66103 24.3091 5.05521 21.375 2.72204C23.5314 1.02518 26.2535 0 29.223 0C36.2578 0 41.9494 5.72689 41.9494 12.7264Z" fill="#F79E1B"/>
</g>
</svg>
