<svg width="31" height="31" viewBox="0 0 31 31" fill="none" xmlns="http://www.w3.org/2000/svg">
<g id="swm icon pack / money">
<g id="Group">
<path id="Vector" d="M25.8333 9.04102H5.16667C4.4533 9.04102 3.875 9.61932 3.875 10.3327V20.666C3.875 21.3794 4.4533 21.9577 5.16667 21.9577H25.8333C26.5467 21.9577 27.125 21.3794 27.125 20.666V10.3327C27.125 9.61932 26.5467 9.04102 25.8333 9.04102Z" stroke="#1C1C1C" stroke-width="1.9375" stroke-linecap="round" stroke-linejoin="round"/>
<path id="Vector_2" d="M7.75 12.2695V18.7279" stroke="#1C1C1C" stroke-width="1.9375" stroke-linecap="round" stroke-linejoin="round"/>
<path id="Vector_3" d="M18.7279 15.4987C18.7279 17.2821 17.2821 18.7279 15.4987 18.7279C13.7153 18.7279 12.2695 17.2821 12.2695 15.4987C12.2695 13.7153 13.7153 12.2695 15.4987 12.2695C17.2821 12.2695 18.7279 13.7153 18.7279 15.4987Z" stroke="#1C1C1C" stroke-width="1.9375" stroke-linecap="round" stroke-linejoin="round"/>
<path id="Vector_4" d="M23.25 12.2695V18.7279" stroke="#1C1C1C" stroke-width="1.9375" stroke-linecap="round" stroke-linejoin="round"/>
</g>
</g>
</svg>
