<svg width="28" height="28" viewBox="0 0 28 28" fill="none" xmlns="http://www.w3.org/2000/svg">
<g id="Icon / Twitter">
<path id="Vector" d="M24.4683 7.83697C23.9265 8.55974 23.2715 9.19022 22.5287 9.70406C22.5287 9.89286 22.5287 10.0817 22.5287 10.281C22.5347 13.7096 21.1651 16.9973 18.7271 19.4069C16.289 21.8166 12.9864 23.1466 9.55975 23.0987C7.57868 23.1054 5.62297 22.6531 3.84585 21.7771C3.75002 21.7352 3.68822 21.6405 3.68858 21.5359V21.4205C3.68858 21.2699 3.81062 21.1478 3.96117 21.1478C5.90851 21.0835 7.78638 20.4084 9.32908 19.2178C7.56647 19.1822 5.98058 18.1381 5.25072 16.5325C5.21387 16.4449 5.22534 16.3442 5.28102 16.2671C5.33669 16.19 5.42852 16.1475 5.52331 16.155C6.05901 16.2087 6.60007 16.1589 7.11692 16.0081C5.17114 15.6042 3.7091 13.9888 3.49986 12.0117C3.49243 11.9168 3.53493 11.825 3.61202 11.7692C3.6891 11.7136 3.78964 11.702 3.8773 11.739C4.39945 11.9694 4.96313 12.0908 5.5338 12.0955C3.82884 10.9765 3.0924 8.84806 3.741 6.91393C3.80795 6.72599 3.9688 6.58714 4.16444 6.54843C4.36007 6.50971 4.56164 6.57683 4.69506 6.72512C6.99581 9.17379 10.1571 10.633 13.5122 10.7949C13.4264 10.452 13.3841 10.0996 13.3865 9.74601C13.4179 7.89218 14.5649 6.24075 16.2907 5.56485C18.0163 4.88897 19.9791 5.32237 21.2602 6.66218C22.1333 6.49583 22.9775 6.20253 23.7658 5.79158C23.8236 5.75553 23.8969 5.75553 23.9546 5.79158C23.9907 5.84935 23.9907 5.92261 23.9546 5.98038C23.5728 6.85478 22.9277 7.58814 22.1094 8.07822C22.826 7.99512 23.5299 7.82608 24.2063 7.57475C24.2632 7.53599 24.338 7.53599 24.3949 7.57475C24.4426 7.59657 24.4783 7.6383 24.4924 7.68883C24.5066 7.73935 24.4977 7.79355 24.4683 7.83697Z" fill="white"/>
</g>
</svg>
