<svg width="24" height="24" viewBox="0 0 24 24" fill="none" xmlns="http://www.w3.org/2000/svg">
<g id="Icon / Twitter">
<path id="Vector" d="M20.4243 6.53421C19.9731 7.1361 19.4277 7.66114 18.8091 8.08904C18.8091 8.24627 18.8091 8.4035 18.8091 8.56947C18.814 11.4247 17.6735 14.1626 15.6433 16.1692C13.6129 18.1758 10.8626 19.2834 8.00904 19.2436C6.35929 19.2491 4.73065 18.8725 3.25073 18.143C3.17093 18.1081 3.11947 18.0292 3.11977 17.9421V17.846C3.11977 17.7206 3.2214 17.619 3.34677 17.619C4.96844 17.5654 6.53225 17.0032 7.81696 16.0117C6.34912 15.9821 5.02845 15.1125 4.42066 13.7755C4.38997 13.7025 4.39952 13.6187 4.44589 13.5545C4.49225 13.4902 4.56872 13.4549 4.64766 13.4611C5.09377 13.5059 5.54434 13.4644 5.97476 13.3388C4.35439 13.0024 3.13686 11.6572 2.96261 10.0107C2.95642 9.93173 2.99182 9.85527 3.05602 9.80883C3.12021 9.76249 3.20392 9.75287 3.27693 9.78367C3.71176 9.97555 4.18116 10.0766 4.6564 10.0806C3.23657 9.14872 2.6233 7.3762 3.16342 5.76553C3.21918 5.60903 3.35313 5.4934 3.51605 5.46117C3.67896 5.42892 3.84682 5.48481 3.95793 5.60831C5.8739 7.64746 8.50647 8.86259 11.3005 8.99748C11.229 8.7119 11.1938 8.4184 11.1958 8.12398C11.2219 6.58018 12.1772 5.20494 13.6143 4.64208C15.0513 4.07923 16.6858 4.44015 17.7527 5.55589C18.4798 5.41736 19.1828 5.17311 19.8393 4.83089C19.8874 4.80087 19.9484 4.80087 19.9965 4.83089C20.0265 4.879 20.0265 4.94 19.9965 4.98812C19.6785 5.71628 19.1413 6.32699 18.4599 6.73512C19.0566 6.66591 19.6429 6.52514 20.2061 6.31584C20.2535 6.28357 20.3158 6.28357 20.3632 6.31584C20.4029 6.33401 20.4326 6.36876 20.4444 6.41084C20.4562 6.45292 20.4488 6.49805 20.4243 6.53421Z" fill="white"/>
</g>
</svg>
