<svg width="59" height="19" viewBox="0 0 59 19" fill="none" xmlns="http://www.w3.org/2000/svg">
<g id="Group 41">
<path id="Vector" d="M20.9024 17.9885L23.8237 0.845577H28.4963L25.5728 17.9885H20.9024ZM42.4545 1.21513C41.529 0.86782 40.0783 0.495117 38.2668 0.495117C33.6495 0.495117 30.3974 2.82022 30.3695 6.15257C30.3435 8.61586 32.6915 9.99011 34.4638 10.81C36.2828 11.6506 36.8941 12.1863 36.8853 12.9365C36.8737 14.0857 35.4329 14.6105 34.0897 14.6105C32.2196 14.6105 31.2261 14.3506 29.6915 13.7108L29.0891 13.4384L28.4335 17.276C29.5249 17.7547 31.543 18.1691 33.6386 18.1906C38.5504 18.1906 41.7391 15.8921 41.7753 12.3334C41.7928 10.3832 40.5479 8.89933 37.852 7.67569C36.2188 6.88265 35.2186 6.35346 35.2292 5.55043C35.2292 4.83786 36.0758 4.0759 37.9054 4.0759C39.4331 4.05217 40.5402 4.38538 41.4026 4.73269L41.8213 4.93051L42.4545 1.21513ZM54.4789 0.845314H50.8684C49.7499 0.845314 48.9127 1.15059 48.4216 2.26695L41.482 17.9772H46.3888C46.3888 17.9772 47.1908 15.8649 47.3723 15.4011C47.9085 15.4011 52.6751 15.4084 53.3565 15.4084C53.4963 16.0086 53.925 17.9772 53.925 17.9772H58.2609L54.4789 0.844789V0.845314ZM48.7503 11.9152C49.1368 10.9275 50.612 7.12295 50.612 7.12295C50.5846 7.16857 50.9957 6.13041 51.2315 5.48676L51.5473 6.96479C51.5473 6.96479 52.442 11.0569 52.6291 11.9149H48.7503V11.9152ZM16.9357 0.845314L12.361 12.5361L11.8737 10.1604C11.022 7.42165 8.36864 4.45447 5.40234 2.969L9.58536 17.9612L14.5292 17.9557L21.8855 0.845139L16.9357 0.845052" fill="white"/>
<path id="Vector_2" d="M8.09444 0.844727H0.559724L0.5 1.2014C6.36193 2.62041 10.2405 6.04961 11.851 10.1704L10.2126 2.29254C9.92984 1.20701 9.10948 0.882994 8.09461 0.845164" fill="white"/>
</g>
</svg>
