<svg width="197" height="47" viewBox="0 0 197 47" fill="none" xmlns="http://www.w3.org/2000/svg">
<g id="Banque_du_caire_Logo" clip-path="url(#clip0_1_60462)">
<g id="surface1">
<g id="Group">
<path id="Vector" d="M126.738 23.4165L173.573 70.2509L220.408 23.4165L173.573 -23.418L126.738 23.4165Z" fill="url(#paint0_linear_1_60462)"/>
</g>
<path id="Vector_2" d="M185.77 15.7354V37.0682L188.639 39.2795V17.9467L185.77 15.7354Z" fill="white"/>
<path id="Vector_3" d="M158.527 39.2794L161.397 37.0681V15.7344L158.527 17.9457V39.2794Z" fill="white"/>
<path id="Vector_4" d="M181.61 12.5833C178.896 7.26389 173.432 7.13086 173.432 7.13086C173.432 7.13086 167.88 7.26648 165.165 12.6576C164.502 13.9749 164.007 15.6032 163.805 17.6219C163.802 17.6763 163.799 17.7325 163.797 17.7869V35.0814L166.62 32.832V18.7457C166.62 16.4704 167.438 14.2504 168.995 12.591C169.908 11.6184 171.151 10.7157 172.838 10.1058C173.219 9.96763 173.64 9.96677 174.021 10.105C178.251 11.6322 179.651 15.0063 180.087 16.6976C180.145 17.1736 180.204 17.6426 180.263 18.1186V32.832L183.01 35.0434V17.7869C183.006 17.7325 183.004 17.6763 183.001 17.6219C182.795 15.5652 182.288 13.9127 181.61 12.5833Z" fill="white"/>
<path id="Vector_5" d="M174.785 13.7566C174.381 13.5804 173.923 13.4586 173.405 13.418C172.884 13.4586 172.427 13.5812 172.022 13.7583C170.057 14.6161 169.371 16.7825 169.199 17.4667C169.167 17.5945 169.152 17.7232 169.152 17.8545V31.3793L172.022 29.8314V18.1456C172.022 17.325 172.553 16.5908 173.339 16.3584C173.381 16.3463 173.405 16.3411 173.405 16.3411C173.405 16.3411 173.428 16.3463 173.469 16.3584C174.255 16.5899 174.785 17.3233 174.785 18.1422V29.8573L177.655 31.4052V17.7586C177.653 17.687 177.645 17.6153 177.628 17.5444C177.493 16.9639 176.833 14.6498 174.785 13.7566Z" fill="white"/>
<path id="Vector_6" d="M1.47454 37.9056C1.76305 37.9566 2.18632 37.9739 2.71238 37.9739C4.23789 37.9739 5.64418 37.4141 5.64418 35.753C5.64418 34.1938 4.30526 33.5502 2.69511 33.5502H1.47454V37.9056ZM1.47454 32.4316H2.81345C4.37264 32.4316 5.28829 31.617 5.28829 30.5157C5.28829 29.1767 4.27157 28.6515 2.77976 28.6515C2.10167 28.6515 1.71209 28.7025 1.47454 28.7535V32.4316ZM0 27.7532C0.644407 27.6176 1.66112 27.5156 2.69511 27.5156C4.16964 27.5156 5.11898 27.7705 5.83076 28.3466C6.42421 28.7872 6.7801 29.4653 6.7801 30.3636C6.7801 31.465 6.05104 32.4316 4.84774 32.8713V32.9058C5.93269 33.1771 7.20337 34.0755 7.20337 35.7703C7.20337 36.7533 6.81379 37.4988 6.23762 38.0585C5.44118 38.7867 4.15237 39.1262 2.28825 39.1262C1.27154 39.1262 0.491512 39.0588 0 38.9906" fill="#656262"/>
<path id="Vector_7" d="M15.2825 34.838C13.6551 34.8043 11.8082 35.0919 11.8082 36.6848C11.8082 37.6514 12.4518 38.1093 13.2145 38.1093C14.2822 38.1093 14.9603 37.4312 15.1978 36.7358C15.2488 36.5838 15.2825 36.4145 15.2825 36.2616V34.838ZM15.5028 39.024L15.3844 37.9901H15.3335C14.8756 38.6345 13.9945 39.2106 12.8249 39.2106C11.1638 39.2106 10.3164 38.041 10.3164 36.855C10.3164 34.8717 12.0786 33.7867 15.2488 33.804V33.6347C15.2488 32.9566 15.0622 31.736 13.3838 31.736C12.6211 31.736 11.8246 31.9736 11.2485 32.3459L10.9098 31.3629C11.5871 30.9223 12.5701 30.6338 13.6041 30.6338C16.1126 30.6338 16.7233 32.3459 16.7233 33.9906V37.058C16.7233 37.7698 16.757 38.4652 16.8581 39.024" fill="#656262"/>
<path id="Vector_8" d="M20.9775 33.0412C20.9775 32.1938 20.9611 31.4985 20.9102 30.8212H22.2318L22.3164 32.1766H22.3501C22.757 31.3965 23.7063 30.6338 25.0625 30.6338C26.1984 30.6338 27.9606 31.3127 27.9606 34.1262V39.024H26.4688V34.2955C26.4688 32.973 25.9782 31.8716 24.571 31.8716C23.588 31.8716 22.8252 32.567 22.5713 33.3971C22.503 33.5837 22.4693 33.8377 22.4693 34.0916V39.024H20.9775" fill="#656262"/>
<path id="Vector_9" d="M37.9514 34.1417C37.9514 33.9388 37.935 33.7012 37.884 33.5146C37.6638 32.599 36.8673 31.8198 35.7487 31.8198C34.2059 31.8198 33.2738 33.125 33.2738 34.9727C33.2738 36.5993 34.0539 38.0237 35.6977 38.0237C36.6635 38.0237 37.4945 37.4303 37.8331 36.3963C37.9013 36.1925 37.9514 35.9048 37.9514 35.6845V34.1417ZM37.9514 37.7516H37.9186C37.4772 38.5654 36.5615 39.2098 35.2399 39.2098C33.3248 39.2098 31.7656 37.5486 31.7656 35.0574C31.7656 31.9891 33.7489 30.6338 35.4774 30.6338C36.7481 30.6338 37.5964 31.2609 38.0024 32.0574H38.0369L38.0879 30.8204H39.4942C39.4605 31.5149 39.4432 32.2267 39.4432 33.0741V42.3791H37.9514" fill="#656262"/>
<path id="Vector_10" d="M50.6345 36.7858C50.6345 37.6332 50.6509 38.3796 50.7018 39.0231H49.3793L49.2947 37.6842H49.261C48.8714 38.3459 48.0067 39.2097 46.5495 39.2097C45.2607 39.2097 43.7188 38.4979 43.7188 35.6162V30.8203H45.2106V35.3623C45.2106 36.9215 45.6848 37.9727 47.041 37.9727C48.0404 37.9727 48.7358 37.2773 49.007 36.6165C49.0917 36.3963 49.1427 36.125 49.1427 35.8538V30.8203H50.6345" fill="#656262"/>
<path id="Vector_11" d="M60.1282 34.1253C60.1455 33.176 59.7387 31.7015 58.0611 31.7015C56.552 31.7015 55.8912 33.0913 55.7729 34.1253H60.1282ZM55.7556 35.193C55.7893 37.21 57.0781 38.0402 58.5691 38.0402C59.6376 38.0402 60.2811 37.8536 60.8409 37.6169L61.0949 38.6846C60.5697 38.9212 59.6704 39.1933 58.3661 39.1933C55.8403 39.1933 54.332 37.5314 54.332 35.0574C54.332 32.5826 55.7893 30.6338 58.1795 30.6338C60.8573 30.6338 61.5691 32.9894 61.5691 34.4976C61.5691 34.8026 61.5354 35.0401 61.5181 35.193" fill="#656262"/>
<path id="Vector_12" d="M76.2015 34.1589C76.2015 33.9724 76.1851 33.7184 76.1342 33.5318C75.9139 32.5825 75.1002 31.8033 73.9815 31.8033C72.4388 31.8033 71.524 33.1586 71.524 34.9727C71.524 36.6329 72.3377 38.0064 73.9478 38.0064C74.9481 38.0064 75.8629 37.3456 76.1342 36.2269C76.1851 36.0231 76.2015 35.8201 76.2015 35.5825V34.1589ZM77.6934 26.9893V36.905C77.6934 37.6332 77.7106 38.4642 77.7616 39.0231H76.4227L76.3544 37.5995H76.3208C75.8629 38.5152 74.8626 39.2097 73.5237 39.2097C71.5413 39.2097 70.0158 37.5321 70.0158 35.04C69.9985 32.3112 71.6933 30.6337 73.693 30.6337C74.9481 30.6337 75.7956 31.2263 76.1679 31.888H76.2015V26.9893" fill="#656262"/>
<path id="Vector_13" d="M88.9118 36.7858C88.9118 37.6332 88.9291 38.3796 88.9801 39.0231H87.6575L87.5729 37.6842H87.5392C87.1488 38.3459 86.2849 39.2097 84.8268 39.2097C83.5389 39.2097 81.9961 38.4979 81.9961 35.6162V30.8203H83.4879V35.3623C83.4879 36.9215 83.963 37.9727 85.3183 37.9727C86.3186 37.9727 87.0131 37.2773 87.2844 36.6165C87.3699 36.3963 87.42 36.125 87.42 35.8538V30.8203H88.9118" fill="#656262"/>
<path id="Vector_14" d="M106.646 38.6515C106.103 38.9227 105.018 39.1939 103.629 39.1939C100.408 39.1939 97.9844 37.1596 97.9844 33.4133C97.9844 29.8379 100.408 27.4141 103.951 27.4141C105.374 27.4141 106.273 27.7181 106.662 27.922L106.306 29.1253C105.747 28.854 104.951 28.651 104.002 28.651C101.324 28.651 99.5436 30.3631 99.5436 33.3632C99.5436 36.1593 101.154 37.9561 103.933 37.9561C104.832 37.9561 105.747 37.7695 106.341 37.4818" fill="#656262"/>
<path id="Vector_15" d="M114.552 34.838C112.925 34.8043 111.078 35.0919 111.078 36.6848C111.078 37.6514 111.721 38.1093 112.484 38.1093C113.553 38.1093 114.23 37.4312 114.467 36.7358C114.518 36.5838 114.552 36.4145 114.552 36.2616V34.838ZM114.772 39.024L114.654 37.9901H114.603C114.145 38.6345 113.264 39.2106 112.094 39.2106C110.433 39.2106 109.586 38.041 109.586 36.855C109.586 34.8717 111.349 33.7867 114.518 33.804V33.6347C114.518 32.9566 114.332 31.736 112.653 31.736C111.891 31.736 111.094 31.9736 110.518 32.3459L110.179 31.3629C110.857 30.9223 111.84 30.6338 112.874 30.6338C115.382 30.6338 115.993 32.3459 115.993 33.9906V37.058C115.993 37.7698 116.027 38.4652 116.128 39.024" fill="#656262"/>
<path id="Vector_16" d="M120.28 30.8197H121.771V39.0234H120.28V30.8197ZM121.941 28.5151C121.958 29.023 121.585 29.4298 120.992 29.4298C120.467 29.4298 120.094 29.023 120.094 28.5151C120.094 27.9899 120.483 27.583 121.026 27.583C121.585 27.583 121.941 27.9899 121.941 28.5151Z" fill="#656262"/>
<path id="Vector_17" d="M125.939 33.379C125.939 32.4133 125.922 31.5831 125.871 30.8204H127.176L127.227 32.4305H127.295C127.668 31.3283 128.566 30.6338 129.567 30.6338C129.736 30.6338 129.854 30.6502 129.99 30.6839V32.091C129.837 32.0574 129.685 32.0401 129.481 32.0401C128.431 32.0401 127.684 32.8365 127.481 33.9552C127.448 34.159 127.414 34.3966 127.414 34.6505V39.0232H125.939" fill="#656262"/>
<path id="Vector_18" d="M138.301 34.1253C138.317 33.176 137.911 31.7015 136.233 31.7015C134.725 31.7015 134.063 33.0913 133.945 34.1253H138.301ZM133.927 35.193C133.962 37.21 135.25 38.0402 136.741 38.0402C137.809 38.0402 138.453 37.8536 139.013 37.6169L139.267 38.6846C138.742 38.9212 137.843 39.1933 136.538 39.1933C134.012 39.1933 132.504 37.5314 132.504 35.0574C132.504 32.5826 133.962 30.6338 136.352 30.6338C139.029 30.6338 139.742 32.9894 139.742 34.4976C139.742 34.8026 139.707 35.0401 139.691 35.193" fill="#656262"/>
<path id="Vector_19" d="M139.54 14.6895C139.36 14.2057 139.15 13.7289 138.938 13.246L138.59 12.4116L137.532 12.9091L138.379 15.7943C138.406 15.9437 138.431 16.0932 138.454 16.2435L138.495 18.6354C136.712 18.5188 134.951 18.9101 133.253 18.1905C133.502 16.8576 133.736 15.5973 133.981 14.2817C133.52 14.1755 133.158 14.0917 132.715 13.9898C132.563 15.1266 132.414 16.1821 132.282 17.2403C132.135 18.4108 132.056 18.5378 130.847 18.5835C129.358 18.6406 127.865 18.5853 126.376 18.6388C125.699 18.663 125.469 18.4453 125.443 17.7647C125.349 15.2872 125.197 12.8124 125.063 10.3367C125.054 10.1829 125.016 10.0309 124.991 9.87109C123.66 10.2469 123.639 10.2494 123.773 11.5218C123.977 13.4378 124.196 15.352 124.45 17.261C124.533 17.8873 124.446 18.2484 123.725 18.3209C122.164 18.4782 120.609 18.841 119.051 18.8487C109.496 18.8997 99.9424 18.8574 90.3877 18.885C87.7894 18.8928 85.9658 17.8709 87.0128 14.5806C87.0689 14.4044 87.0206 14.1954 87.0206 14.0019C86.9204 13.9941 86.8202 13.9863 86.72 13.9785C86.4755 14.7033 86.2146 15.4237 85.9883 16.1545C85.5167 17.68 86.225 19.2599 87.7358 19.7756C88.5262 20.046 89.409 20.1488 90.2504 20.1522C99.1416 20.1773 108.033 20.1522 116.924 20.1773C119.391 20.1851 121.834 20.1151 124.217 19.3921C124.407 19.3342 124.769 19.3195 124.819 19.4111C125.209 20.1177 125.861 19.9086 126.438 19.9164C127.68 19.9337 128.923 19.913 130.166 19.9225C131.283 19.9302 132.301 19.7065 133.081 18.6328C133.61 19.9993 134.745 19.8957 135.815 19.9164C136.782 19.9363 137.748 19.9069 138.715 19.9259C139.167 19.9346 139.358 19.7713 139.371 19.3074C139.399 18.3996 139.453 17.4908 139.532 16.5864C139.558 16.291 139.691 15.9766 139.744 15.6872L139.896 15.5446" fill="#393536"/>
<path id="Vector_20" d="M136.848 23.2268L137.878 24.2582L138.9 23.2268L137.878 22.1963L136.848 23.2268Z" fill="#393536"/>
<path id="Vector_21" d="M134.256 10.2698L133.235 9.23926L132.203 10.2698L133.235 11.3012L134.256 10.2698Z" fill="#393536"/>
<path id="Vector_22" d="M103.362 16.0444C104.473 15.6358 105.616 15.3481 106.764 15.0648C107.23 14.9499 107.07 14.4437 107.053 14.1492C107.027 13.7043 106.673 14.0403 106.485 14.0593C106.16 14.0913 105.846 14.2148 105.524 14.2831C104.973 14.3997 104.551 14.1777 104.265 13.7224C104.132 13.5108 103.874 13.2776 104.119 12.9891C104.482 12.5641 104.938 12.3455 105.51 12.4665C105.724 12.5122 105.944 12.5641 106.14 12.6582C106.401 12.7852 106.479 12.6237 106.57 12.4457C106.652 12.2859 106.653 12.1702 106.506 12.0181C105.545 11.0213 104.131 11.2148 103.511 12.4647C103.075 13.3432 103.184 14.1561 103.997 14.8644C103.689 15.0363 103.436 15.1909 103.172 15.324C102.936 15.4406 102.983 15.6289 103.014 15.8181C103.045 16.0193 103.17 16.1144 103.362 16.0444Z" fill="#393536"/>
<path id="Vector_23" d="M80.7376 11.3856C80.7748 12.0438 80.8447 12.6995 80.8992 13.3568C81.0806 15.5682 81.2611 17.7804 81.4442 20.0108H82.4514C82.3106 16.565 82.1742 13.2247 82.0368 9.87305C80.6754 10.1598 80.6677 10.1598 80.7376 11.3856Z" fill="#393536"/>
<path id="Vector_24" d="M73.4548 10.0315L72.4329 9.00098L71.4023 10.0315L72.4329 11.0629L73.4548 10.0315Z" fill="#393536"/>
<path id="Vector_25" d="M70.7477 10.0315L69.7258 9.00098L68.6953 10.0315L69.7258 11.0629L70.7477 10.0315Z" fill="#393536"/>
<path id="Vector_26" d="M71.5691 17.9528C71.4283 18.0548 71.2435 18.0695 71.088 17.9917C70.0885 17.4864 69.3016 16.2658 69.0079 15.7596C68.9189 15.6084 68.8878 15.4331 68.9198 15.2612C69.0373 14.6263 69.496 13.1086 71.2037 13.1906C72.7836 13.2666 73.3399 14.6237 73.5239 15.3433C73.593 15.6136 73.5481 15.9013 73.3909 16.1319C72.7888 17.0156 71.9596 17.6721 71.5691 17.9528ZM78.1022 9.78114L78.0918 9.75781L77.0345 10.2554L77.3904 11.469C77.8698 13.8247 78.046 16.1673 77.9579 18.5195H72.9167C73.4151 17.5399 74.0699 16.6545 74.3135 15.668C74.5899 14.5477 74.0422 13.5094 73.1776 12.719C72.0935 11.7265 70.5965 11.6358 69.5081 12.6732C68.8835 13.2701 68.3704 14.1011 68.1 14.9217C67.6137 16.4023 68.7237 17.3879 69.737 18.5299H64.1783C64.0392 15.649 63.901 12.7743 63.7628 9.88998C62.4118 10.1534 62.3988 10.1552 62.4965 11.3801C62.6157 12.89 62.7651 14.3965 62.8895 15.9056C62.9966 17.2143 63.0856 18.5247 63.1884 19.9223C63.9943 19.9223 64.7329 19.9232 65.4714 19.9223C67.2889 19.9223 69.1185 20.0329 70.8539 19.2978C71.0076 19.233 71.24 19.2468 71.3981 19.3125C73.739 20.2834 76.188 19.798 78.6947 19.9396C78.7673 19.4766 78.8632 19.1276 78.8692 18.7778C78.8865 17.8319 78.8813 16.8852 78.8891 15.9384L78.972 14.0907C79.0334 13.7694 79.1189 13.4472 79.1336 13.1388L79.3979 12.8909L78.1074 9.79496C78.1056 9.79064 78.1039 9.78545 78.1022 9.78114Z" fill="#393536"/>
<path id="Vector_27" d="M54.6493 18.0435C54.4619 18.1661 54.226 18.1955 54.0179 18.1108C53.2517 17.7981 52.5546 16.7771 52.2133 16.2079C52.0406 15.9202 52 15.5738 52.1036 15.2542C52.2911 14.678 52.7938 13.8686 54.1388 13.8885C56.2223 13.9196 55.9735 16.0861 55.9735 16.0861C55.8319 17.1382 55.0674 17.7714 54.6493 18.0435ZM59.6491 14.2461C59.5955 14.0906 59.5152 13.9334 59.4202 13.7771C58.9744 12.934 58.3819 12.2118 57.6874 11.6581L57.6278 11.2608L54.829 10.2959L54.2226 11.5096C54.3003 11.5225 54.372 11.5407 54.448 11.5562C55.7213 12.0304 56.9687 12.4719 57.8921 13.384H57.8929C58.1098 13.5983 58.3093 13.8393 58.4873 14.1122C59.4452 15.5859 59.4634 17.2004 59.1783 18.985C57.9638 18.8736 56.8305 18.7699 55.6211 18.6585C57.1872 16.0636 57.2295 14.6219 55.8604 13.5119C54.816 12.6653 53.3735 12.6947 52.3723 13.5836C50.9677 14.8301 50.9954 16.1077 52.5675 18.5635H10.402C10.18 17.596 10.0124 16.7046 9.76366 15.8364C9.51748 14.9778 9.18836 14.1425 8.8748 13.2372C8.3997 13.505 8.02394 13.7175 7.69655 13.9015C8.28222 15.465 8.85838 16.9456 9.38013 18.4443C9.49847 18.7838 9.54598 19.2355 9.42159 19.5577C8.67439 21.5013 7.39421 22.8826 5.22949 23.2333C4.77599 23.3076 4.31989 23.3715 3.86466 23.4397C3.8111 23.5296 3.75668 23.6194 3.70312 23.7092C3.82492 23.755 3.94672 23.8034 4.07111 23.8466C6.42933 24.6698 7.69223 24.2578 9.09939 22.1742C9.3905 21.7432 9.69715 21.2871 9.83536 20.7973C10.0366 20.0829 10.4098 19.9041 11.1319 19.905C24.2732 19.9283 37.4136 19.9344 50.554 19.9015C51.6925 19.8989 52.8293 19.5932 53.9695 19.4541C54.2546 19.4195 54.5552 19.4619 54.8419 19.5076C56.5143 19.7754 58.1858 20.0553 59.8115 20.3231C60.5803 18.1273 60.4092 15.9746 59.6448 14.2435" fill="#393536"/>
<path id="Vector_28" d="M5.57977 10.0315L4.55874 9.00098L3.52734 10.0315L4.55874 11.0629L5.57977 10.0315Z" fill="#393536"/>
<path id="Vector_29" d="M2.87665 10.0315L1.85562 9.00098L0.824219 10.0315L1.85562 11.0629L2.87665 10.0315Z" fill="#393536"/>
<path id="Vector_30" d="M1.13818 17.7567C1.13818 17.7567 2.06332 14.9735 3.89807 14.1028L5.75614 18.129C5.75614 18.129 3.40829 20.0104 1.13818 17.7567ZM6.71584 18.1861C6.31589 16.7659 5.83129 15.3432 5.16356 14.0311V14.0294L5.16097 14.0268L3.49467 11.9277L3.12063 11.4561L2.26546 12.1402L3.04894 13.1388C2.17476 14.3403 1.26256 15.3726 0.617294 16.5508C-0.11004 17.8785 0.412569 19.1172 1.77826 19.7651C3.23552 20.4562 4.70833 20.2756 6.06366 19.5371C6.43596 19.3341 6.82123 18.5618 6.71584 18.1861Z" fill="#393536"/>
</g>
</g>
<defs>
<linearGradient id="paint0_linear_1_60462" x1="150.162" y1="46.8398" x2="196.997" y2="0.00517383" gradientUnits="userSpaceOnUse">
<stop stop-color="#EE2F2C"/>
<stop offset="0.25" stop-color="#EE2F2C"/>
<stop offset="0.28125" stop-color="#EE302C"/>
<stop offset="0.296875" stop-color="#EE312C"/>
<stop offset="0.3125" stop-color="#EE312C"/>
<stop offset="0.328125" stop-color="#EE322C"/>
<stop offset="0.34375" stop-color="#EE332C"/>
<stop offset="0.359375" stop-color="#EE332C"/>
<stop offset="0.375" stop-color="#EE342B"/>
<stop offset="0.390625" stop-color="#EF352B"/>
<stop offset="0.40625" stop-color="#EF362B"/>
<stop offset="0.414063" stop-color="#EF372B"/>
<stop offset="0.421875" stop-color="#EF372B"/>
<stop offset="0.429687" stop-color="#EF382B"/>
<stop offset="0.4375" stop-color="#EF382B"/>
<stop offset="0.445313" stop-color="#EF392B"/>
<stop offset="0.453125" stop-color="#EF3A2B"/>
<stop offset="0.460937" stop-color="#EF3A2B"/>
<stop offset="0.46875" stop-color="#EF3B2B"/>
<stop offset="0.476563" stop-color="#EF3B2B"/>
<stop offset="0.484375" stop-color="#EF3C2B"/>
<stop offset="0.492188" stop-color="#EF3D2B"/>
<stop offset="0.5" stop-color="#EF3D2A"/>
<stop offset="0.507813" stop-color="#EF3E2A"/>
<stop offset="0.515625" stop-color="#EF3F2A"/>
<stop offset="0.523438" stop-color="#F0402A"/>
<stop offset="0.53125" stop-color="#F0402A"/>
<stop offset="0.539063" stop-color="#F0412A"/>
<stop offset="0.546875" stop-color="#F0422A"/>
<stop offset="0.554687" stop-color="#F0432A"/>
<stop offset="0.5625" stop-color="#F0432A"/>
<stop offset="0.570313" stop-color="#F0442A"/>
<stop offset="0.578125" stop-color="#F0452A"/>
<stop offset="0.585938" stop-color="#F0462A"/>
<stop offset="0.59375" stop-color="#F04729"/>
<stop offset="0.601562" stop-color="#F04829"/>
<stop offset="0.609375" stop-color="#F04929"/>
<stop offset="0.617188" stop-color="#F04929"/>
<stop offset="0.625" stop-color="#F14A29"/>
<stop offset="0.632813" stop-color="#F14B29"/>
<stop offset="0.640625" stop-color="#F14C29"/>
<stop offset="0.648437" stop-color="#F14D29"/>
<stop offset="0.65625" stop-color="#F14E29"/>
<stop offset="0.664062" stop-color="#F14F29"/>
<stop offset="0.667969" stop-color="#F15029"/>
<stop offset="0.671875" stop-color="#F15128"/>
<stop offset="0.675781" stop-color="#F15128"/>
<stop offset="0.679688" stop-color="#F15228"/>
<stop offset="0.683594" stop-color="#F15228"/>
<stop offset="0.6875" stop-color="#F15328"/>
<stop offset="0.691406" stop-color="#F15328"/>
<stop offset="0.695312" stop-color="#F15428"/>
<stop offset="0.699219" stop-color="#F15428"/>
<stop offset="0.703125" stop-color="#F15528"/>
<stop offset="0.707031" stop-color="#F25528"/>
<stop offset="0.710937" stop-color="#F25628"/>
<stop offset="0.714844" stop-color="#F25628"/>
<stop offset="0.71875" stop-color="#F25728"/>
<stop offset="0.722656" stop-color="#F25828"/>
<stop offset="0.726563" stop-color="#F25828"/>
<stop offset="0.730469" stop-color="#F25928"/>
<stop offset="0.734375" stop-color="#F25928"/>
<stop offset="0.738281" stop-color="#F25A27"/>
<stop offset="0.742187" stop-color="#F25A27"/>
<stop offset="0.746094" stop-color="#F25B27"/>
<stop offset="0.75" stop-color="#F25C27"/>
<stop offset="0.753906" stop-color="#F25C27"/>
<stop offset="0.757813" stop-color="#F25D27"/>
<stop offset="0.761719" stop-color="#F25D27"/>
<stop offset="0.765625" stop-color="#F25E27"/>
<stop offset="0.769531" stop-color="#F25E27"/>
<stop offset="0.773437" stop-color="#F25F27"/>
<stop offset="0.777344" stop-color="#F26027"/>
<stop offset="0.78125" stop-color="#F36027"/>
<stop offset="0.785156" stop-color="#F36127"/>
<stop offset="0.789063" stop-color="#F36227"/>
<stop offset="0.792969" stop-color="#F36227"/>
<stop offset="0.796875" stop-color="#F36327"/>
<stop offset="0.800781" stop-color="#F36326"/>
<stop offset="0.804688" stop-color="#F36426"/>
<stop offset="0.808594" stop-color="#F36526"/>
<stop offset="0.8125" stop-color="#F36526"/>
<stop offset="0.816406" stop-color="#F36626"/>
<stop offset="0.820312" stop-color="#F36726"/>
<stop offset="0.824219" stop-color="#F36726"/>
<stop offset="0.828125" stop-color="#F36826"/>
<stop offset="0.832031" stop-color="#F36826"/>
<stop offset="0.835938" stop-color="#F36926"/>
<stop offset="0.839844" stop-color="#F36A26"/>
<stop offset="0.84375" stop-color="#F36A26"/>
<stop offset="0.847656" stop-color="#F46B26"/>
<stop offset="0.851563" stop-color="#F46C26"/>
<stop offset="0.855469" stop-color="#F46C26"/>
<stop offset="0.859375" stop-color="#F46D25"/>
<stop offset="0.863281" stop-color="#F46E25"/>
<stop offset="0.867187" stop-color="#F46F25"/>
<stop offset="0.871094" stop-color="#F46F25"/>
<stop offset="0.875" stop-color="#F47025"/>
<stop offset="0.878906" stop-color="#F47125"/>
<stop offset="0.882813" stop-color="#F47125"/>
<stop offset="0.886719" stop-color="#F47225"/>
<stop offset="0.890625" stop-color="#F47325"/>
<stop offset="0.894531" stop-color="#F47325"/>
<stop offset="0.898438" stop-color="#F47425"/>
<stop offset="0.902344" stop-color="#F47525"/>
<stop offset="0.90625" stop-color="#F47625"/>
<stop offset="0.910156" stop-color="#F57624"/>
<stop offset="0.914063" stop-color="#F57724"/>
<stop offset="0.917969" stop-color="#F57824"/>
<stop offset="0.921875" stop-color="#F57824"/>
<stop offset="0.925781" stop-color="#F57924"/>
<stop offset="0.929688" stop-color="#F57A24"/>
<stop offset="0.933594" stop-color="#F57A24"/>
<stop offset="0.9375" stop-color="#F57B24"/>
<stop offset="1" stop-color="#F57B24"/>
</linearGradient>
<clipPath id="clip0_1_60462">
<rect width="197" height="46.8324" fill="white"/>
</clipPath>
</defs>
</svg>
