<svg width="200" height="52" viewBox="0 0 200 52" fill="none" xmlns="http://www.w3.org/2000/svg">
<g id="BRAC_Bank_Limited_Logo" clip-path="url(#clip0_1_60443)">
<g id="layer1">
<g id="g12">
<path id="path14" d="M0 21.4443H21.4539V-0.000509262H0V21.4443Z" fill="white"/>
<path id="path16" d="M17.3219 5.5426C14.1143 10.39 9.40881 16.8118 0.667969 16.2806V0.670319H20.2817C20.2817 0.670319 19.1321 2.80972 17.3219 5.5426Z" fill="#0071BB"/>
<path id="path18" d="M0.667969 17.4579V20.7773H20.7876V0.923183C20.7876 0.923183 14.3478 18.7278 0.667969 17.4579Z" fill="#E5A812"/>
<path id="path20" d="M7.49549 6.00449C4.77874 6.00449 2.57812 8.19297 2.57812 10.905C2.57812 13.1412 4.07782 15.0192 6.13473 15.6123C8.58131 14.8194 10.6129 13.419 12.3399 11.7826C12.3923 11.5 12.4177 11.2034 12.4177 10.905C12.4177 8.19297 10.217 6.00449 7.49549 6.00449Z" fill="#3880C3"/>
<path id="path22" d="M11.1893 10.9042C11.1893 12.9344 9.53855 14.584 7.49266 14.584C5.45261 14.584 3.80078 12.9344 3.80078 10.9042C3.80078 8.87742 5.45261 7.23691 7.49266 7.23691C9.53855 7.23691 11.1893 8.87742 11.1893 10.9042Z" fill="#5E93C9"/>
<path id="path24" d="M9.96171 10.9046C9.96171 12.2617 8.84873 13.3457 7.49457 13.3457C6.14004 13.3457 5.04688 12.2617 5.04688 10.9046C5.04688 9.55519 6.14004 8.4555 7.49457 8.4555C8.84873 8.4555 9.96171 9.55519 9.96171 10.9046Z" fill="#8AADD8"/>
<path id="path26" d="M8.73017 10.9039C8.73017 11.5854 8.17443 12.1279 7.49588 12.1279C6.81733 12.1279 6.26562 11.5854 6.26562 10.9039C6.26562 10.2264 6.81733 9.68391 7.49588 9.68391C8.17443 9.68391 8.73017 10.2264 8.73017 10.9039Z" fill="#BBCEDE"/>
<path id="path28" d="M33.7528 4.76917H36.5344C37.4736 4.76917 38.1485 4.9334 38.5436 5.26111C38.9143 5.58666 39.1105 6.03797 39.1105 6.61352C39.1105 7.23741 38.9143 7.71029 38.5436 8.03988C38.1485 8.372 37.4615 8.526 36.482 8.526H33.7528V4.76917ZM27.3984 20.6357H38.2735C38.7277 20.6357 39.6801 20.5456 41.0867 20.3663C42.1604 20.2339 42.9533 20.0221 43.4856 19.7141C44.3405 19.2383 45.0124 18.5777 45.4967 17.7566C45.993 16.9449 46.2361 16.0043 46.2361 14.9779C46.2361 13.7025 45.8908 12.6515 45.199 11.8106C44.5132 10.9751 43.4274 10.3801 41.9653 10.0366C42.9243 9.72319 43.6553 9.26466 44.1612 8.71735C44.9131 7.87086 45.2958 6.8609 45.2958 5.67873C45.2958 4.27648 44.7724 3.09319 43.7143 2.14741C42.6645 1.19647 41.1509 0.710352 39.1885 0.710352H27.3984V20.6357ZM33.7528 12.3256H36.9399C38.0576 12.3256 38.8205 12.5097 39.2662 12.8645C39.7072 13.2135 39.9316 13.6845 39.9316 14.2693C39.9316 14.9016 39.7024 15.4031 39.2615 15.7762C38.8205 16.1539 38.0509 16.3349 36.9604 16.3349H33.7528" fill="#0071BB"/>
<path id="path30" d="M54.3428 4.73235H57.0895C58.2326 4.73235 59.0087 4.9024 59.4272 5.25253C59.8412 5.58644 60.0457 6.08579 60.0457 6.71925C60.0457 7.16126 59.9152 7.53927 59.6572 7.87908C59.3954 8.21777 59.0526 8.42817 58.6447 8.50597C57.8158 8.69545 57.2604 8.77906 56.9836 8.77906H54.3428V4.73235ZM54.3428 20.6348V12.546H54.889C55.4689 12.546 55.9822 12.6916 56.4334 13.0021C56.7516 13.2415 57.1347 13.7492 57.5683 14.5402L60.9168 20.6348H68.0424L64.9745 14.865C64.8179 14.5751 64.5287 14.1649 64.0943 13.6242C63.6577 13.082 63.3248 12.729 63.0862 12.5685C62.742 12.3246 62.2023 12.0775 61.4516 11.8356C62.3926 11.6292 63.1379 11.3532 63.6727 11.05C64.5239 10.5573 65.1941 9.90155 65.6746 9.10386C66.1614 8.29482 66.4037 7.34895 66.4037 6.24157C66.4037 4.96799 66.0903 3.91045 65.4532 3.01966C64.8241 2.13658 63.992 1.52761 62.9633 1.21126C61.9339 0.900818 60.4368 0.710127 58.4962 0.710127H47.9961V20.6348" fill="#0071BB"/>
<path id="path32" d="M76.9437 13.0503L79.181 5.89166L81.397 13.0503H76.9437ZM83.7475 20.6357H90.3479L82.7362 0.711475H75.7879L68.1289 20.6357H74.5668L75.6047 17.3493H82.7248" fill="#0071BB"/>
<path id="path34" d="M103.486 12.4289L109.033 14.0009C108.662 15.4629 108.068 16.6935 107.267 17.6766C106.47 18.6529 105.477 19.3893 104.295 19.8904C103.111 20.3842 101.617 20.6357 99.7818 20.6357C97.5614 20.6357 95.7493 20.3354 94.3453 19.7302C92.9443 19.1173 91.7213 18.0483 90.7136 16.5204C89.6905 14.9881 89.1875 13.0268 89.1875 10.6356C89.1875 7.44969 90.0699 5.00088 91.8742 3.2882C93.6668 1.57185 96.1941 0.711475 99.4778 0.711475C102.057 0.711475 104.061 1.21262 105.529 2.1903C107.001 3.17971 108.092 4.68856 108.814 6.71572L103.23 7.90831C103.031 7.31511 102.836 6.87704 102.614 6.60949C102.269 6.14026 101.832 5.79782 101.329 5.54453C100.814 5.29856 100.245 5.17102 99.627 5.17102C98.2033 5.17102 97.111 5.71354 96.3536 6.79455C95.7727 7.60331 95.4884 8.86178 95.4884 10.5822C95.4884 12.7112 95.8356 14.1772 96.5179 14.9702C97.1992 15.7594 98.1705 16.1539 99.4139 16.1539C100.619 16.1539 101.527 15.8327 102.147 15.2041C102.767 14.5706 103.209 13.6442 103.486 12.4289Z" fill="#0071BB"/>
<path id="path36" d="M122.177 4.76917H124.956C125.907 4.76917 126.576 4.9334 126.967 5.26111C127.347 5.58666 127.534 6.03797 127.534 6.61352C127.534 7.23741 127.347 7.71029 126.967 8.03988C126.576 8.372 125.897 8.526 124.915 8.526H122.177V4.76917ZM115.824 20.6357H126.702C127.168 20.6357 128.11 20.5456 129.524 20.3663C130.588 20.2339 131.386 20.0221 131.921 19.7141C132.761 19.2383 133.436 18.5777 133.937 17.7566C134.421 16.9449 134.667 16.0043 134.667 14.9779C134.667 13.7025 134.319 12.6515 133.638 11.8106C132.936 10.9751 131.864 10.3801 130.395 10.0366C131.348 9.72319 132.087 9.26466 132.591 8.71735C133.34 7.87086 133.716 6.8609 133.716 5.67873C133.716 4.27648 133.195 3.09319 132.138 2.14741C131.079 1.19647 129.583 0.710352 127.617 0.710352H115.824V20.6357ZM122.177 12.3256H125.366C126.486 12.3256 127.256 12.5097 127.704 12.8645C128.146 13.2135 128.351 13.6845 128.351 14.2693C128.351 14.9016 128.132 15.4031 127.689 15.7762C127.246 16.1539 126.481 16.3349 125.395 16.3349H122.177" fill="#0071BB"/>
<path id="path38" d="M142.546 13.0503L144.788 5.89166L146.995 13.0503H142.546ZM149.346 20.6357H155.957L148.35 0.711475H141.395L133.746 20.6357H140.181L141.212 17.3493H148.332" fill="#0071BB"/>
<path id="path40" d="M156.293 0.710127H162.162L169.868 11.7352V0.710127H175.827V20.6348H169.868L162.215 9.68449V20.6348H156.293" fill="#0071BB"/>
<path id="path42" d="M178.355 0.710127H184.664V8.24311L191.269 0.710127H199.659L192.204 8.21777L200.002 20.6348H192.236L187.94 12.5021L184.664 15.8119V20.6348H178.355" fill="#0071BB"/>
<path id="path44" d="M178.434 35.1355L178.45 35.1121L178.465 35.0912L178.434 35.1355ZM186.083 41.2505C186.157 41.407 186.201 41.5508 186.201 41.6765C186.201 41.8004 186.173 41.9141 186.119 42.0171C185.691 42.843 183.851 43.4259 182.769 43.6135C182.251 43.5974 182.129 43.2961 182.099 43.1029L182.36 38.5833C183.961 39.198 185.839 41.0101 186.083 41.2505ZM177.609 43.053C176.226 42.4009 174.649 41.2656 174.577 41.212C174.385 41.0834 174.285 40.9481 174.25 40.7879L174.237 40.6526C174.237 40.4096 174.35 40.0969 174.539 39.8033V39.7985L174.547 39.7768C175.428 38.3065 177.251 37.0781 178.048 36.5883C177.702 38.6939 177.626 41.6886 177.609 43.053ZM199.548 34.3499C197.829 33.2032 196.412 33.9691 195.899 34.5263L195.795 34.6916L195.773 34.7477C193.71 33.6208 190.258 34.1087 190.223 34.1172C188.436 34.3228 187.571 34.5901 187.308 34.6832C184.783 33.7305 183.003 34.6472 182.209 35.233C181.475 34.4859 180.727 34.1172 179.979 34.1593C179.011 34.2272 178.499 34.9431 178.45 35.0124L178.369 35.1458L178.356 35.1814C176.567 33.6263 173.705 34.1659 172.295 34.5798L172.348 34.4522L172.294 34.5263L172.383 34.3807C172.55 33.8844 173.457 31.4822 175.515 30.823C177.074 30.323 178.983 30.9319 181.183 32.6251C181.304 32.7263 181.466 32.7732 181.633 32.7535C181.804 32.7311 181.957 32.6446 182.059 32.5105C182.268 32.2347 182.215 31.8432 181.943 31.6332C179.39 29.6745 177.093 29.0015 175.117 29.6378C172.228 30.565 171.213 33.9163 171.195 33.9764C170.911 34.5714 170.644 35.5982 170.398 37.0077C169.538 35.236 168.739 34.2964 167.912 34.1791C167.44 34.1172 167.144 34.2993 166.977 34.4578L166.888 34.4776L166.835 34.4907L166.793 34.5237C166.148 35.0417 165.628 37.7518 165.23 42.5453C164.87 42.3305 164.424 42.0695 163.852 41.7601C164.252 41.0731 164.567 40.2585 164.775 39.2402C164.88 38.5693 165.255 35.2957 162.732 34.4776L162.712 34.468L162.697 34.4655C162.403 34.4119 160.89 34.1886 159.66 35.0483C158.843 35.6242 158.342 36.5374 158.171 37.7603V37.7933C158.169 38.0089 158.2 39.1041 158.956 39.7732C159.449 40.1974 160.088 40.3447 160.857 40.216C161.194 40.172 161.432 39.8472 161.381 39.5078C161.359 39.3424 161.269 39.1951 161.138 39.0987C161.002 39.0001 160.825 38.9568 160.66 38.9868C160.389 39.0272 160.012 39.0386 159.787 38.8366C159.442 38.5308 159.427 37.9385 159.423 37.8812C159.537 37.0499 159.854 36.4447 160.373 36.0784C161.093 35.5707 162.014 35.6326 162.395 35.6862C163.452 36.0307 163.609 37.3765 163.609 38.1496C163.609 38.4351 163.588 38.7362 163.55 39.0001V39.0085C163.353 39.9451 163.048 40.7454 162.647 41.3807L162.666 41.3631L162.199 41.9533L162.102 42.0735C161.043 43.1744 159.852 43.1029 159.84 43.1029C155.184 42.538 154.901 34.4655 154.894 34.3874C154.884 34.0355 154.597 33.7597 154.252 33.7641C153.911 33.7748 153.635 34.0589 153.64 34.3998C153.652 34.7826 153.963 43.648 159.698 44.35H159.73C159.925 44.3643 161.691 44.3801 163.131 42.784C164.32 43.4277 165.14 43.938 165.244 44.0666C165.411 44.2749 165.695 44.3669 165.932 44.2976C166.198 44.2085 166.375 44.0039 166.388 43.7569C166.711 39.2918 167.287 35.8149 167.602 35.4874L167.483 35.5512C167.578 35.5351 167.653 35.4761 167.724 35.4237H167.729C167.775 35.4347 168.518 35.5916 169.776 38.6349C169.832 38.7757 169.955 38.8732 170.102 38.9407C169.904 40.3785 169.737 42.0031 169.6 43.802L169.589 43.9409L169.587 43.9889C169.587 44.3199 169.841 44.5942 170.166 44.6176C170.516 44.6315 170.807 44.3764 170.837 44.0318C170.837 43.9787 171.213 38.9297 171.849 36.0513L171.889 36.0439C172.034 35.9874 175.071 34.8511 176.975 35.7866C176.025 36.4024 174.389 37.5943 173.485 39.1222C173.492 39.106 172.982 39.811 172.982 40.6563C172.982 40.7597 172.993 40.8693 173.014 41.0075C173.114 41.5255 173.41 41.9467 173.86 42.2403C174.278 42.5427 176.445 44.0853 178.037 44.5894C178.263 44.6381 178.465 44.6008 178.608 44.4823C178.76 44.3764 178.855 44.1887 178.855 43.9871V43.832C178.855 43.2088 178.875 37.702 179.519 35.6836C179.589 35.6084 179.773 35.4255 180.07 35.4064C180.396 35.3943 180.806 35.6349 181.253 36.0693C181.194 37.0593 180.866 42.8309 180.852 43.0926C180.871 43.7261 181.303 44.8739 182.795 44.8739H182.811L182.852 44.868H182.858L182.871 44.8662H182.896C183.484 44.7621 186.405 44.1839 187.232 42.5981C187.385 42.2913 187.456 41.9973 187.456 41.6783C187.456 41.3385 187.368 40.9943 187.195 40.6424L187.08 40.4734C187.064 40.4547 184.579 37.9227 182.439 37.2855L182.466 36.8482L182.481 36.5968L182.62 36.5216C182.65 36.4868 184.195 34.7008 187.078 35.9153C187.232 35.9736 187.4 35.9772 187.544 35.9303L187.589 35.9153L187.598 35.9068C187.666 35.8852 188.507 35.5707 190.391 35.354C190.542 35.3353 193.884 34.9197 195.379 35.967C195.225 36.6895 195.145 37.4732 195.092 38.1899C194.724 37.8897 194.336 37.6928 193.92 37.7057C193.344 37.7332 192.8 38.0766 192.295 38.6958C192.059 38.3065 191.791 37.996 191.46 37.8168C190.846 37.471 190.258 37.548 189.98 37.6159L189.921 37.628H189.918V37.6449C188.412 37.9347 187.909 40.4631 187.763 41.5639C187.532 43.8584 189.075 44.0919 189.138 44.0996C190.575 44.1924 191.306 43.2015 191.493 42.659C191.6 42.3305 191.434 41.9749 191.119 41.8612C190.776 41.7543 190.429 41.9196 190.312 42.2403C190.3 42.2762 190.075 42.8851 189.29 42.8543C189.242 42.8309 188.91 42.6721 189.009 41.7091C189.165 40.4125 189.694 38.9088 190.175 38.8509L190.282 38.8263C190.282 38.8263 190.571 38.7457 190.869 38.9135C191.193 39.1041 191.44 39.532 191.582 40.1599C191.639 40.418 191.855 40.6141 192.119 40.6424C192.4 40.6714 192.646 40.5306 192.765 40.2893C192.958 39.8418 193.527 38.9814 193.976 38.9587C194.242 38.9473 194.584 39.2901 194.924 39.9018L195.017 40.0012C195.002 41.6849 195.097 43.0758 195.1 43.1395C195.129 43.483 195.425 43.7448 195.765 43.7177C196.11 43.6883 196.352 43.424 196.352 43.0908L196.32 42.95L196.348 43.0626L196.343 43.0017C196.295 42.1421 196.273 41.2355 196.273 40.3785C196.273 37.9366 196.487 36.1932 196.898 35.3118C197.11 35.1121 197.773 34.6689 198.833 35.3822C198.954 35.475 199.131 35.508 199.3 35.475C199.47 35.4442 199.616 35.3485 199.704 35.2078C199.886 34.9394 199.823 34.5618 199.548 34.3499ZM139.249 39.5657C138.254 38.3949 136.922 38.2409 136.286 38.3516C135.877 38.4209 135.564 38.6614 135.311 38.9814L135.253 38.893L135.267 38.9172L135.184 38.8172L135.198 38.8263L135.183 38.8076L135.167 38.7915C134.327 38.0268 134.699 36.6521 134.762 36.4387L134.767 36.4326L134.787 36.3592L134.793 36.3243C135.217 35.9303 136.893 34.5864 138.839 35.9097C138.989 36.4839 139.291 37.7632 139.291 39.0881C139.291 39.2552 139.263 39.4026 139.249 39.5657ZM146.002 34.1924L145.981 34.1886H145.963C145.607 34.1886 145.294 34.3228 145.065 34.5618C144.684 34.9504 144.654 35.5259 144.654 35.754V36.0634C144.312 35.6326 143.931 35.2595 143.474 35.0142C141.891 34.1924 140.18 34.7451 139.853 34.8668L139.738 35.0021C137.031 32.9771 134.596 34.8372 133.99 35.3683C133.439 35.093 132.33 34.5666 132.235 34.5509L132.326 34.5864C131.599 34.1117 131.091 34.2147 130.796 34.3807C130.252 34.7008 130.162 35.3654 130.142 35.6939C129.544 34.777 128.957 34.2664 128.367 34.1791C127.863 34.1087 127.563 34.3228 127.426 34.4578L127.343 34.4776L127.292 34.4915L127.25 34.5237C126.407 35.2059 125.912 39.6654 125.679 42.5453C125.257 42.2828 124.785 42.0141 124.306 41.7601C124.715 41.046 125.032 40.2142 125.224 39.2402C125.257 39.0752 125.874 35.354 123.181 34.4776L123.163 34.4655H123.141C122.722 34.3903 121.297 34.2205 120.112 35.0483C119.299 35.6216 118.801 36.5282 118.627 37.7603C118.625 37.7826 118.571 39.0272 119.408 39.7714C119.896 40.1974 120.536 40.3447 121.315 40.216C121.479 40.1955 121.623 40.1046 121.719 39.9693C121.816 39.8315 121.855 39.6589 121.82 39.4916C121.801 39.3406 121.716 39.1951 121.579 39.0987C121.442 39.0001 121.27 38.9568 121.102 38.9868C120.84 39.0272 120.47 39.0386 120.246 38.8358C119.992 38.6151 119.891 38.2043 119.879 37.8758C120.001 37.047 120.314 36.4387 120.831 36.0784C121.541 35.5707 122.459 35.6326 122.836 35.6862C123.846 36.0164 124.058 37.2057 124.058 38.1496C124.058 38.4351 124.033 38.7362 123.993 39.0001V39.0026C123.809 39.9283 123.509 40.7278 123.11 41.3807L122.656 41.9533L122.592 42.035C121.518 43.1828 120.304 43.1029 120.292 43.1029C115.636 42.538 115.354 34.4655 115.352 34.3874C115.336 34.0288 115.054 33.7597 114.71 33.7641C114.533 33.7701 114.378 33.8367 114.262 33.9614C114.15 34.0805 114.09 34.2429 114.094 34.409C114.105 34.7826 114.366 43.6436 120.152 44.35H120.181C120.504 44.3669 122.184 44.3452 123.585 42.784C124.754 43.4108 125.59 43.9343 125.704 44.0666C125.858 44.2749 126.152 44.3764 126.388 44.2976C126.645 44.2133 126.82 44.0142 126.845 43.7616C127.163 39.2937 127.735 35.8166 128.053 35.4874L128.177 35.4237H128.179C128.223 35.431 128.913 35.5941 130.068 38.2625L129.901 44.2422C129.897 44.5894 130.173 44.8739 130.516 44.8823C130.675 44.886 130.841 44.8233 130.962 44.7122C131.081 44.5942 131.152 44.4402 131.156 44.2749L131.303 38.6705L131.323 38.0832L131.391 35.8401C131.381 35.7059 131.404 35.5982 131.43 35.5212C131.487 35.541 131.575 35.5832 131.702 35.6638L131.728 35.6836C132.082 35.8401 132.939 36.2389 133.479 36.5113C133.423 36.8105 133.373 37.1063 133.373 37.3886C133.373 38.3139 133.681 39.1041 134.267 39.6654L134.239 39.6317C134.391 39.8436 134.627 40.1974 134.826 40.5654L135.024 40.9764C135.106 41.1508 135.118 41.2531 135.125 41.2891C135.129 41.5929 135.031 42.1212 134.782 42.2715C134.53 42.4214 133.989 42.2715 133.316 41.8612C133.016 41.6849 132.642 41.7758 132.461 42.0658C132.275 42.3701 132.364 42.7528 132.669 42.9357C133.801 43.6135 134.728 43.7543 135.42 43.3514C136.327 42.8225 136.386 41.6024 136.377 41.2362V41.227L136.375 41.2062C136.353 40.9492 136.247 40.6424 136.069 40.2585C136.105 39.9639 136.206 39.6317 136.483 39.5874C136.504 39.5855 137.836 39.3707 138.657 40.8946C138.727 41.0178 138.839 41.1097 138.964 41.1622C138.937 41.274 138.915 41.3873 138.904 41.5009C138.275 41.7968 137.824 42.1897 137.608 42.6872C137.122 43.802 137.83 44.9178 137.836 44.9256L137.959 45.0597L137.92 45.0194C138.473 45.5869 139.021 45.6547 139.383 45.6162C140.404 45.5044 141.014 44.4713 141.021 44.4589C141.1 44.3342 141.13 44.1689 141.09 44.0039C141.055 43.8368 140.961 43.6997 140.817 43.6135C140.529 43.4259 140.147 43.5072 139.959 43.802C139.824 44.0058 139.518 44.3397 139.245 44.3669C139.131 44.3896 138.999 44.3115 138.862 44.1839C138.809 44.0894 138.685 43.832 138.685 43.5318C138.685 43.4108 138.714 43.2961 138.757 43.1883C138.932 42.7884 139.537 42.4683 140.419 42.3063C140.621 42.3015 141.872 42.3015 142.498 43.071C142.927 43.5956 142.989 44.4101 142.688 45.4923C142.678 45.5139 141.756 47.7651 135.732 46.2889C135.522 46.231 135.293 46.2889 135.135 46.4494C134.979 46.5997 134.915 46.8267 134.973 47.0462C135.041 47.2867 136.688 52.7426 147.416 50.8734C147.755 50.8133 147.988 50.4896 147.931 50.1479C147.863 49.8092 147.539 49.583 147.2 49.6347C140.631 50.7843 137.908 49.017 136.838 47.7801C142.65 48.8051 143.775 46.1811 143.887 45.8713C144.309 44.3482 144.166 43.1425 143.466 42.2828C142.43 41.0166 140.643 41.046 140.294 41.0628L140.282 41.0647L140.273 41.0731C140.771 39.3069 140.433 37.202 140.16 36.0531L140.302 36.0344L140.261 36.0531L140.273 36.0513L140.3 36.0439C140.541 35.952 141.815 35.5512 142.88 36.1253C143.667 36.5348 144.208 37.382 144.495 38.6349L144.637 38.8366L144.606 44.4552C144.606 44.7921 144.877 45.0725 145.217 45.0887C145.583 45.0887 145.861 44.8101 145.861 44.4552L145.908 35.7437C145.899 35.6488 145.927 35.508 145.963 35.449C146.849 35.6037 147.885 35.8251 148.228 36.0128C148.364 36.0861 148.531 36.1085 148.684 36.0634C148.848 36.0164 148.988 35.9068 149.074 35.7595C149.231 35.4365 149.112 35.0633 148.814 34.9035C148.061 34.5094 146.081 34.2092 146.002 34.1924Z" fill="#0071BB"/>
</g>
</g>
</g>
<defs>
<clipPath id="clip0_1_60443">
<rect width="200" height="51.2632" fill="white"/>
</clipPath>
</defs>
</svg>
