<svg width="199" height="46" viewBox="0 0 199 46" fill="none" xmlns="http://www.w3.org/2000/svg">
<g id="Group">
<path id="Vector" fill-rule="evenodd" clip-rule="evenodd" d="M91.6389 17.5675L91.8492 17.0921C92.1235 15.8028 91.2457 9.86874 91.0354 8.68923C88.3473 8.25949 88.5667 9.73159 84.635 8.69838C64.4006 3.38605 60.9079 17.8327 66.7048 22.0112C72.4194 26.1257 86.0614 27.0767 87.753 31.4107C90.3497 38.0671 76.15 41.9347 68.9724 34.5469C66.2385 31.7215 65.2236 27.2138 63.404 29.262C62.7274 30.03 65.7264 37.8659 65.8087 38.0031C66.6865 39.5666 69.7861 39.53 71.5142 39.8775C75.8482 40.7552 80.9868 41.1393 85.1837 39.8135C94.3637 36.9059 96.4484 26.8207 87.3049 22.6055C83.7847 20.978 79.789 20.1002 75.9762 18.8476C74.2024 18.2624 71.8525 17.4944 70.7279 16.5434C69.0272 15.1079 69.3289 12.4655 70.8102 11.1945C74.0561 8.41494 82.4315 8.4515 87.6341 14.1387C88.8045 15.4462 89.4353 18.5641 91.6389 17.5675Z" fill="#144A8F"/>
<path id="Vector_2" fill-rule="evenodd" clip-rule="evenodd" d="M97.7891 13.1151L98.8497 13.9654C99.2886 14.1849 99.6178 14.2215 100.057 14.4866C102.086 15.7393 101.318 21.1796 101.318 24.4255C101.318 27.2966 101.876 33.3038 100.532 34.5656C99.9103 35.1508 100.02 34.8856 99.4715 35.2148C98.1457 36.0103 98.7766 35.2605 98.42 36.4583C101.273 36.6686 105.086 36.44 108.103 36.4857C111.321 36.5406 113.818 36.6503 116.259 34.913C119.331 32.7278 121.452 25.1844 113.818 23.2735C115.408 21.9751 117.292 21.5911 117.237 18.3269C117.118 10.6921 106.695 12.8591 99.9744 12.6762C97.8988 12.6214 98.2554 12.7128 97.7891 13.1151ZM105.982 14.4866C105.332 16.4708 105.214 20.6402 105.762 22.7431C109.438 23.9775 113.744 23.4015 113.278 18.6377C112.958 15.3187 109.31 13.1425 105.982 14.4866ZM106.265 24.8919C105.104 25.5593 105.268 32.2797 105.908 33.5872C107.006 35.8548 111.34 35.5074 113.013 33.9713C115.491 31.6946 115.564 26.1811 110.773 24.9741C109.511 24.6541 107.307 24.2792 106.265 24.8919Z" fill="#144A8F"/>
<g id="Group_2">
<path id="Vector_3" fill-rule="evenodd" clip-rule="evenodd" d="M45.3622 8.17873C45.856 11.0223 51.9912 7.1638 52.1101 13.9665C52.1741 17.4684 52.3021 37.008 51.9821 39.1658C51.6986 41.0402 50.7751 42.3477 48.6722 41.4882C46.9166 40.775 46.8252 39.2207 44.8411 38.7909C43.5701 39.6687 42.4455 41.8631 42.9941 43.6187C44.5668 47.0566 58.5196 44.981 59.3883 33.7163C59.9003 27.0873 59.0957 18.2274 59.434 11.9367C59.562 9.4771 60.5678 9.93427 62.1313 9.23022C63.3016 8.6999 62.8993 9.01078 63.1828 8.02329C61.1712 7.35582 56.8921 7.941 54.4234 7.91357C52.3112 7.89528 46.88 7.20952 45.3622 8.17873Z" fill="#144A8F"/>
<path id="Vector_4" fill-rule="evenodd" clip-rule="evenodd" d="M5.14062 30.7896C14.6224 30.7896 13.0131 31.4388 18.1426 26.4556C21.1873 23.4932 43.8996 1.41178 44.5762 0.0219796C34.8476 0.0219796 36.658 -0.572345 31.5194 4.41997C28.4564 7.40072 25.6402 10.1986 22.6229 13.2251C20.2364 15.6115 5.90867 29.4364 5.14062 30.7896Z" fill="#FDB614"/>
<path id="Vector_5" fill-rule="evenodd" clip-rule="evenodd" d="M3.27734 45.9133C11.5704 45.9316 11.6802 46.6905 17.7514 40.2627C18.8395 39.1015 20.1835 37.7483 21.3173 36.5779C24.7278 33.0851 37.2635 21.1712 39.531 18.4282C34.9502 18.3185 31.494 17.587 28.6595 20.4123C21.4819 27.5808 13.8929 34.8041 6.84328 42.1097C5.74607 43.2434 3.82595 44.999 3.27734 45.9133Z" fill="#F47B20"/>
<path id="Vector_6" fill-rule="evenodd" clip-rule="evenodd" d="M174.91 12.8145C175.02 13.7197 174.361 13.162 175.605 13.802C176.071 14.0397 176.382 13.9574 176.94 14.1952C179.18 15.1552 178.348 20.5316 178.348 24.1341C178.348 40.7203 177.196 32.482 175.65 36.4594L185.873 36.4503C184.94 34.0639 182.499 36.8983 182.526 31.3848C182.545 27.7 182.033 27.1057 184.611 25.3776C185.233 26.2919 192.09 35.8194 192.868 36.2491C193.535 36.6149 198.308 36.5783 198.911 36.3223C198.573 35.2616 198.354 35.6274 197.266 35.0605C196.47 34.6399 196.095 34.2559 195.592 33.5701C194.669 32.3266 193.901 31.2294 192.904 29.8579C191.77 28.2943 188.104 23.9329 187.683 22.3968C188.351 21.6654 189.265 20.5956 190.051 19.919C192.328 17.9714 195.071 15.0729 197.238 14.0397C198.326 13.5186 198.381 13.7837 198.573 12.8145C197.796 12.4854 191.002 12.5494 190.152 12.7231C190.435 14.3323 190.637 13.4637 192.154 14.314C192.118 16.5816 187.592 20.1567 185.416 22.2231C184.574 23.0186 183.779 24.2621 182.563 24.7193C182.481 22.4151 182.545 20.0561 182.535 17.7428C182.508 11.8727 184.337 14.8535 184.885 12.8145C184.245 12.5036 175.614 12.5036 174.91 12.8145Z" fill="#144A8F"/>
</g>
<path id="Vector_7" fill-rule="evenodd" clip-rule="evenodd" d="M146.707 12.7585C147.375 15.0261 150.456 12.9962 150.456 19.4972V30.2316C150.456 36.6228 147.182 34.0535 147.402 36.4766L156.289 36.4583C156.116 35.2239 156.966 36.0285 155.476 35.3611C154.534 34.9405 152.961 35.3153 152.367 32.7094C151.91 30.6796 152.129 21.399 152.157 18.3086C153.555 18.8663 163.75 30.579 165.542 32.2523C166.731 33.3586 168.551 36.504 170.517 36.7509C170.571 33.0935 170.123 16.3976 170.919 14.9986C171.833 13.3711 172.93 14.3952 173.305 12.8225C172.629 12.5299 165.424 12.5208 164.829 12.8225C165.222 14.9346 168.889 12.9962 168.889 17.76C168.889 21.2345 169.118 25.9342 168.66 29.2441C167.728 28.7138 156.39 16.1233 154.671 14.1117C153.528 12.7768 153.619 12.5208 151.343 12.6396C150.346 12.6853 147.155 12.4659 146.707 12.7585Z" fill="#144A8F"/>
<path id="Vector_8" fill-rule="evenodd" clip-rule="evenodd" d="M120.641 36.2934C121.29 36.5951 128.522 36.6225 129.629 36.4214C128.349 34.0258 124.261 36.458 126.812 30.0758C127.626 28.0369 128.047 28.1923 130.433 28.2106C132.262 28.2197 134.109 28.1649 135.938 28.2746C136.934 29.4907 138.251 32.2154 137.967 34.3824C136.952 35.059 136.02 35.3608 135.691 36.3208C136.477 36.5951 145.191 36.586 146.041 36.3025C145.529 34.6841 144.67 36.1288 143.453 34.3184C142.073 32.2428 134.822 13.572 133.341 12.0176C132.207 12.493 132.701 12.5205 131.613 14.8886C131.11 15.9767 130.671 17.0465 130.177 18.0888C129.171 20.1918 128.266 22.2674 127.297 24.4801C126.319 26.7111 125.331 28.8141 124.435 30.917C121.765 37.1803 121.656 34.2635 120.641 36.2934Z" fill="#144A8F"/>
<path id="Vector_9" fill-rule="evenodd" clip-rule="evenodd" d="M0 22.8067C8.9697 23.3919 9.08857 22.5416 13.5597 18.0887C14.4192 17.2292 22.438 9.30187 22.7763 8.54297C12.938 8.68926 14.4558 8.11323 9.17086 13.4164C8.11022 14.4771 0.539462 21.6455 0 22.8067Z" fill="#FDB614"/>
<path id="Vector_10" fill-rule="evenodd" clip-rule="evenodd" d="M22.0859 40.5L28.0109 40.5731C31.7597 40.5823 33.5884 37.6838 37.0172 34.3099C38.3612 32.9841 44.0576 27.8455 44.7708 26.2637C35.0605 26.4374 37.0172 25.5322 30.1413 32.3623C28.9252 33.5418 22.5431 39.5856 22.0859 40.5Z" fill="#F47B20"/>
<path id="Vector_11" fill-rule="evenodd" clip-rule="evenodd" d="M128.819 26.3288L135.119 26.3562C135.484 25.0853 132.531 19.1147 131.882 18.5752C131.425 19.1421 128.581 25.0579 128.819 26.3288Z" fill="white"/>
</g>
</svg>
